<svg width="64" height="64" viewBox="0 0 64 64" fill="none" xmlns="http://www.w3.org/2000/svg">
<g filter="url(#filter0_d_3_6614)">
<path d="M12.3745 55.83C10.8392 55.83 9.52484 55.2833 8.43151 54.19C7.33817 53.0967 6.7915 51.7823 6.7915 50.247V21.577C6.7915 19.8352 5.74012 18.2999 4.79942 16.8339C4.78877 16.8173 4.77818 16.8006 4.76766 16.7839C4.25589 15.9697 4 15.0276 4 13.9575V5.583C4 4.04768 4.54667 2.73334 5.64001 1.64001C6.73334 0.546669 8.04768 0 9.583 0H54.247C55.7823 0 57.0967 0.546669 58.19 1.64001C59.2833 2.73334 59.83 4.04768 59.83 5.583V13.9575C59.83 15.0276 59.5741 15.9697 59.0623 16.7839C59.0518 16.8006 59.0412 16.8173 59.0306 16.8339C58.0899 18.2999 57.0385 19.8352 57.0385 21.577V50.247C57.0385 51.7823 56.4918 53.0967 55.3985 54.19C54.3052 55.2833 52.9908 55.83 51.4555 55.83H12.3745ZM17.3745 19.5405C14.6131 19.5405 12.3745 21.7791 12.3745 24.5405V45.247C12.3745 48.0084 14.6131 50.247 17.3745 50.247H46.4555C49.2169 50.247 51.4555 48.0084 51.4555 45.247V24.5405C51.4555 21.7791 49.2169 19.5405 46.4555 19.5405H17.3745ZM9.583 9.77025C9.583 12.0828 11.4577 13.9575 13.7702 13.9575H50.0598C52.3723 13.9575 54.247 12.0828 54.247 9.77025C54.247 7.4577 52.3723 5.583 50.0598 5.583H13.7702C11.4577 5.583 9.583 7.4577 9.583 9.77025ZM23.5405 30.7065C23.5405 32.2482 24.7903 33.498 26.332 33.498H37.498C39.0397 33.498 40.2895 32.2482 40.2895 30.7065C40.2895 29.1648 39.0397 27.915 37.498 27.915H26.332C24.7903 27.915 23.5405 29.1648 23.5405 30.7065Z" fill="#012A4A"/>
</g>
<defs>
<filter id="filter0_d_3_6614" x="0" y="0" width="63.8301" height="63.8301" filterUnits="userSpaceOnUse" color-interpolation-filters="sRGB">
<feFlood flood-opacity="0" result="BackgroundImageFix"/>
<feColorMatrix in="SourceAlpha" type="matrix" values="0 0 0 0 0 0 0 0 0 0 0 0 0 0 0 0 0 0 127 0" result="hardAlpha"/>
<feOffset dy="4"/>
<feGaussianBlur stdDeviation="2"/>
<feComposite in2="hardAlpha" operator="out"/>
<feColorMatrix type="matrix" values="0 0 0 0 0 0 0 0 0 0 0 0 0 0 0 0 0 0 0.25 0"/>
<feBlend mode="normal" in2="BackgroundImageFix" result="effect1_dropShadow_3_6614"/>
<feBlend mode="normal" in="SourceGraphic" in2="effect1_dropShadow_3_6614" result="shape"/>
</filter>
</defs>
</svg>
