<svg width="64" height="64" viewBox="0 0 64 64" fill="none" xmlns="http://www.w3.org/2000/svg">
<g filter="url(#filter0_d_186_100)">
<path d="M21.5022 44.831C24.831 46.5661 28.8133 44.151 28.8133 40.3972V32.5524C28.8133 30.6888 27.777 28.9799 26.1245 28.1185L17.5145 23.6306C14.1857 21.8955 10.2033 24.3106 10.2033 28.0644V35.9092C10.2033 37.7727 11.2397 39.4816 12.8922 40.343L21.5022 44.831ZM35.0167 40.3971C35.0167 44.151 38.999 46.5661 42.3278 44.831L50.9378 40.343C52.5903 39.4816 53.6267 37.7727 53.6267 35.9092V28.0644C53.6267 24.3106 49.6443 21.8955 46.3155 23.6306L37.7055 28.1185C36.053 28.9799 35.0167 30.6888 35.0167 32.5523V40.3971ZM28.8133 55.0623L7.10167 43.8266C6.11947 43.3148 5.35698 42.6402 4.81419 41.8027C4.2714 40.9653 4 40.0348 4 39.0112V16.8188C4 15.7952 4.2714 14.8647 4.81419 14.0273C5.35698 13.1898 6.11947 12.5152 7.10167 12.0035L28.8133 0.767663C29.7955 0.255888 30.8294 0 31.915 0C33.0006 0 34.0345 0.255888 35.0167 0.767663L56.7283 12.0035C57.7105 12.5152 58.473 13.1898 59.0158 14.0273C59.5586 14.8647 59.83 15.7952 59.83 16.8188V39.0112C59.83 40.0348 59.5586 40.9653 59.0158 41.8027C58.473 42.6402 57.7105 43.3148 56.7283 43.8266L35.0167 55.0623C34.0345 55.5741 33.0006 55.83 31.915 55.83C30.8294 55.83 29.7955 55.5741 28.8133 55.0623ZM43.0671 17.5693C43.8545 17.9743 44.7889 17.9743 45.5763 17.5693C47.5558 16.5513 47.5625 13.7236 45.5877 12.6963L33.195 6.24891C32.3926 5.83148 31.4372 5.83109 30.6345 6.24788C28.6343 7.28642 28.6399 10.1496 30.6441 11.1804L43.0671 17.5693ZM30.6292 24.0358C31.4352 24.4552 32.395 24.4556 33.2013 24.0369C35.2053 22.9964 35.2064 20.1301 33.2033 19.088L20.8717 12.6724C20.0657 12.2531 19.1059 12.2527 18.2995 12.6714C16.2956 13.7119 16.2945 16.5781 18.2975 17.6202L30.6292 24.0358Z" fill="#012A4A"/>
</g>
<defs>
<filter id="filter0_d_186_100" x="0" y="0" width="63.8301" height="63.8301" filterUnits="userSpaceOnUse" color-interpolation-filters="sRGB">
<feFlood flood-opacity="0" result="BackgroundImageFix"/>
<feColorMatrix in="SourceAlpha" type="matrix" values="0 0 0 0 0 0 0 0 0 0 0 0 0 0 0 0 0 0 127 0" result="hardAlpha"/>
<feOffset dy="4"/>
<feGaussianBlur stdDeviation="2"/>
<feComposite in2="hardAlpha" operator="out"/>
<feColorMatrix type="matrix" values="0 0 0 0 0 0 0 0 0 0 0 0 0 0 0 0 0 0 0.25 0"/>
<feBlend mode="normal" in2="BackgroundImageFix" result="effect1_dropShadow_186_100"/>
<feBlend mode="normal" in="SourceGraphic" in2="effect1_dropShadow_186_100" result="shape"/>
</filter>
</defs>
</svg>
