<svg width="520" height="500" viewBox="0 0 520 500" fill="none" xmlns="http://www.w3.org/2000/svg">
<path d="M130.24 389.24C201.906 422.08 318.095 422.09 389.762 389.24C461.428 356.39 461.418 303.15 389.762 270.31C318.106 237.47 201.906 237.47 130.24 270.31C58.5736 303.15 58.584 356.4 130.24 389.24Z" fill="#F5F5F5"/>
<path d="M389.511 364.97C402.71 364.97 413.41 360.068 413.41 354.02C413.41 347.973 402.71 343.07 389.511 343.07C376.311 343.07 365.611 347.973 365.611 354.02C365.611 360.068 376.311 364.97 389.511 364.97Z" fill="#EBEBEB"/>
<path d="M124.799 355.589L133.254 350.899C137.975 347.195 141.568 342.334 143.654 336.829C146.264 329.909 145.9 324.649 144.028 322.009C141.73 318.759 135.771 319.329 135.532 326.169C135.032 339.649 130.945 348.999 124.799 355.589Z" fill="#546E81"/>
<path opacity="0.2" d="M124.799 355.589L133.254 350.899C137.975 347.195 141.568 342.334 143.654 336.829C146.264 329.909 145.9 324.649 144.028 322.009C141.73 318.759 135.771 319.329 135.532 326.169C135.032 339.649 130.945 348.999 124.799 355.589Z" fill="black"/>
<path d="M124.799 356.09C124.689 356.089 124.582 356.054 124.494 355.99C124.405 355.927 124.341 355.838 124.308 355.737C124.276 355.636 124.278 355.527 124.313 355.427C124.349 355.327 124.417 355.24 124.508 355.18C144.06 342.18 140.274 324.05 140.232 323.87C140.218 323.804 140.217 323.736 140.23 323.67C140.243 323.605 140.269 323.542 140.307 323.485C140.346 323.429 140.395 323.381 140.452 323.343C140.51 323.305 140.575 323.279 140.643 323.265C140.711 323.251 140.782 323.25 140.85 323.263C140.919 323.275 140.984 323.3 141.043 323.337C141.101 323.374 141.152 323.421 141.191 323.476C141.23 323.532 141.258 323.594 141.272 323.66C141.272 323.85 145.266 342.6 125.132 356C125.034 356.064 124.917 356.096 124.799 356.09Z" fill="white"/>
<path d="M107.858 364.999C107.858 364.999 104.915 362.699 105.622 359.579C106.329 356.459 108.232 354.219 104.977 350.199C101.722 346.179 100.817 340.819 104.707 337.919C107.671 335.669 112.299 338.849 113.963 332.919C115.19 328.579 114.774 318.969 120.525 315.769C126.276 312.569 129.885 317.389 128.98 323.909C128.19 329.739 127.067 335.349 127.94 336.909C129.625 339.909 132.506 339.499 132.371 344.979C132.256 350.079 127.233 354.299 127.233 354.299L107.858 364.999Z" fill="#546E81"/>
<path d="M117.52 360.108C117.392 360.107 117.27 360.062 117.174 359.981C117.079 359.9 117.017 359.789 117 359.668C115.512 347.818 119.08 327.358 121.992 321.278C122.016 321.211 122.055 321.149 122.107 321.098C122.158 321.046 122.22 321.006 122.289 320.979C122.358 320.953 122.432 320.941 122.507 320.944C122.581 320.947 122.653 320.966 122.72 320.998C122.782 321.025 122.837 321.064 122.884 321.112C122.93 321.16 122.966 321.216 122.989 321.278C123.012 321.339 123.023 321.405 123.019 321.47C123.016 321.535 122.999 321.599 122.969 321.658C120.088 327.658 116.646 348.178 118.071 359.508C118.085 359.64 118.045 359.771 117.96 359.874C117.874 359.977 117.749 360.043 117.613 360.058L117.52 360.108Z" fill="white"/>
<path d="M117.238 350.88C117.158 350.883 117.079 350.866 117.009 350.83C113.4 349.14 111.112 343.11 111.019 342.83C110.993 342.768 110.981 342.701 110.983 342.634C110.984 342.567 111 342.502 111.029 342.441C111.057 342.38 111.098 342.325 111.149 342.28C111.2 342.234 111.26 342.199 111.326 342.176C111.391 342.154 111.46 342.144 111.53 342.147C111.599 342.151 111.667 342.168 111.73 342.197C111.792 342.226 111.848 342.267 111.894 342.317C111.94 342.368 111.974 342.426 111.996 342.49C111.996 342.55 114.232 348.39 117.467 349.9C117.573 349.949 117.658 350.032 117.709 350.134C117.76 350.236 117.773 350.352 117.747 350.463C117.72 350.573 117.655 350.671 117.563 350.742C117.47 350.812 117.356 350.85 117.238 350.85V350.88Z" fill="white"/>
<path d="M117.177 354.879C117.073 354.879 116.971 354.848 116.886 354.791C116.8 354.734 116.735 354.652 116.699 354.559C116.647 354.436 116.647 354.3 116.7 354.178C116.753 354.056 116.853 353.959 116.979 353.909C123.053 351.569 126.839 344.619 126.88 344.539C126.944 344.42 127.053 344.332 127.185 344.291C127.317 344.251 127.459 344.263 127.582 344.324C127.705 344.385 127.797 344.49 127.839 344.616C127.881 344.743 127.869 344.88 127.806 344.999C127.639 345.299 123.802 352.359 117.406 354.839C117.335 354.871 117.256 354.885 117.177 354.879Z" fill="white"/>
<path d="M329.472 301.078C329.472 301.078 324.927 293.998 324.48 286.308C324.033 278.618 325.79 275.418 328.203 274.498C330.616 273.578 330.803 276.408 332.041 278.078C333.278 279.748 335.806 278.798 336.742 273.588C337.678 268.378 341.089 259.588 348.182 257.878C355.982 256.018 351.801 264.818 349.835 268.248C347.869 271.678 346.351 276.358 347.641 277.628C348.93 278.898 350.937 276.548 352.841 278.728C355.16 281.358 347.953 290.828 343.813 293.118L329.472 301.078Z" fill="#546E81"/>
<path d="M335.701 298.109C335.633 298.106 335.565 298.091 335.503 298.063C335.441 298.036 335.385 297.997 335.339 297.948C335.293 297.9 335.257 297.843 335.233 297.782C335.21 297.72 335.199 297.654 335.202 297.589C335.906 285.218 339.918 273.232 346.85 262.789C346.889 262.734 346.939 262.688 346.998 262.653C347.056 262.618 347.121 262.594 347.189 262.584C347.257 262.574 347.327 262.577 347.393 262.593C347.46 262.609 347.523 262.639 347.578 262.679C347.687 262.757 347.76 262.872 347.781 263.001C347.802 263.13 347.77 263.262 347.692 263.369C340.884 273.659 336.945 285.461 336.252 297.639C336.248 297.704 336.231 297.769 336.201 297.828C336.171 297.887 336.129 297.94 336.078 297.984C336.027 298.027 335.967 298.061 335.902 298.082C335.838 298.104 335.769 298.113 335.701 298.109Z" fill="white"/>
<path d="M336.294 292.199C336.207 292.199 336.121 292.178 336.044 292.139C333.132 290.589 331.52 285.989 331.458 285.799C331.435 285.737 331.425 285.671 331.429 285.605C331.432 285.539 331.45 285.474 331.48 285.415C331.51 285.355 331.552 285.302 331.603 285.258C331.655 285.214 331.715 285.181 331.78 285.159C331.911 285.118 332.054 285.129 332.176 285.189C332.299 285.249 332.392 285.353 332.435 285.479C332.435 285.479 333.995 289.909 336.595 291.259C336.713 291.326 336.799 291.434 336.836 291.561C336.873 291.688 336.857 291.823 336.793 291.939C336.746 292.025 336.673 292.096 336.584 292.142C336.495 292.189 336.394 292.208 336.294 292.199Z" fill="white"/>
<path d="M336.803 289.17C336.688 289.169 336.576 289.131 336.486 289.062C336.395 288.993 336.331 288.898 336.304 288.79C336.286 288.727 336.283 288.661 336.292 288.597C336.302 288.532 336.325 288.47 336.36 288.415C336.395 288.359 336.441 288.31 336.495 288.272C336.55 288.233 336.612 288.205 336.678 288.19C344.187 286.36 346.787 282.58 346.808 282.54C346.844 282.484 346.892 282.436 346.949 282.398C347.005 282.36 347.068 282.333 347.136 282.319C347.203 282.304 347.272 282.303 347.34 282.314C347.408 282.326 347.472 282.35 347.53 282.385C347.588 282.421 347.639 282.467 347.678 282.521C347.718 282.575 347.746 282.636 347.761 282.701C347.776 282.765 347.777 282.832 347.765 282.897C347.754 282.962 347.728 283.024 347.692 283.08C347.577 283.25 344.873 287.22 336.938 289.16L336.803 289.17Z" fill="white"/>
<path d="M216.32 285.539C216.32 285.539 206.347 283.199 205.827 265.239C205.275 245.859 208.271 223.239 196.467 221.409C184.663 219.579 178.111 233.409 178.256 249.559C178.391 263.699 184.319 294.399 216.279 300.419L216.32 285.539Z" fill="#546E81"/>
<path opacity="0.2" d="M216.32 285.539C216.32 285.539 206.347 283.199 205.827 265.239C205.275 245.859 208.271 223.239 196.467 221.409C184.663 219.579 178.111 233.409 178.256 249.559C178.391 263.699 184.319 294.399 216.279 300.419L216.32 285.539Z" fill="black"/>
<path d="M216.32 298.58H216.226C209.04 297.32 203.184 293.51 198.827 287.27C185.91 268.74 189.976 234.14 191.318 228.1C191.348 227.971 191.429 227.858 191.543 227.786C191.657 227.713 191.797 227.686 191.932 227.71C192.066 227.741 192.183 227.82 192.259 227.932C192.334 228.043 192.362 228.179 192.337 228.31C191.016 234.31 186.971 268.47 199.69 286.71C201.541 289.538 203.984 291.966 206.863 293.839C209.742 295.712 212.994 296.989 216.413 297.59C216.481 297.602 216.546 297.626 216.604 297.663C216.661 297.699 216.711 297.746 216.75 297.801C216.788 297.856 216.815 297.917 216.829 297.983C216.843 298.048 216.843 298.115 216.829 298.18C216.807 298.293 216.744 298.396 216.65 298.469C216.557 298.542 216.44 298.582 216.32 298.58Z" fill="white"/>
<path d="M216.319 344.669C206.013 346.009 189.279 345.989 179.618 338.669C169.956 331.349 171.974 325.049 175.687 322.419C179.399 319.789 182.623 316.789 176.238 310.949C169.852 305.109 159.598 295.729 156.27 281.659C152.942 267.589 154.585 258.789 161.116 255.859C167.45 253.019 169.124 257.539 173.003 266.859C176.883 276.179 185.608 268.189 193.075 271.099C200.543 274.009 200.241 279.769 200.709 284.719C201.177 289.669 203.642 291.039 207.875 291.039C212.107 291.039 216.319 293.379 216.319 298.039V344.669Z" fill="#546E81"/>
<path d="M216.319 328.33C216.275 328.34 216.229 328.34 216.184 328.33C215.737 328.21 205.077 325.23 189.55 311.52C173.014 296.92 165.214 275.02 165.13 274.8C165.091 274.674 165.103 274.538 165.165 274.421C165.227 274.303 165.334 274.213 165.463 274.17C165.593 274.129 165.734 274.138 165.857 274.196C165.98 274.254 166.073 274.356 166.118 274.48C166.191 274.7 173.918 296.36 190.257 310.78C205.566 324.31 216.35 327.34 216.465 327.37C216.53 327.388 216.591 327.419 216.645 327.46C216.698 327.501 216.742 327.552 216.775 327.61C216.808 327.667 216.829 327.73 216.836 327.796C216.844 327.861 216.838 327.927 216.818 327.99C216.785 328.091 216.718 328.179 216.628 328.24C216.538 328.301 216.429 328.333 216.319 328.33Z" fill="white"/>
<path d="M193.887 314.999C193.782 315.001 193.68 314.971 193.594 314.913C193.508 314.856 193.443 314.774 193.408 314.679C190.07 306.439 189.311 288.809 189.248 288.059C189.245 287.927 189.296 287.799 189.389 287.702C189.482 287.605 189.61 287.547 189.747 287.539C189.883 287.541 190.013 287.591 190.113 287.68C190.213 287.768 190.275 287.889 190.288 288.019C190.288 288.199 191.068 306.229 194.344 314.319C194.369 314.381 194.381 314.447 194.38 314.513C194.378 314.579 194.363 314.644 194.335 314.705C194.307 314.765 194.266 314.82 194.216 314.865C194.166 314.91 194.107 314.946 194.043 314.969C193.992 314.986 193.94 314.997 193.887 314.999Z" fill="white"/>
<path d="M193.802 326.85C192.844 326.857 191.885 326.81 190.932 326.71C190.864 326.702 190.798 326.681 190.738 326.649C190.678 326.616 190.625 326.573 190.583 326.521C190.54 326.469 190.509 326.409 190.49 326.345C190.472 326.282 190.466 326.215 190.474 326.15C190.483 326.084 190.504 326.02 190.538 325.963C190.572 325.905 190.617 325.854 190.671 325.814C190.725 325.773 190.787 325.742 190.853 325.725C190.919 325.707 190.989 325.702 191.057 325.71C191.15 325.71 200.833 326.77 205.274 322.42C205.32 322.367 205.377 322.324 205.441 322.294C205.505 322.263 205.576 322.246 205.647 322.243C205.719 322.24 205.79 322.251 205.857 322.275C205.924 322.3 205.985 322.338 206.036 322.386C206.087 322.435 206.127 322.492 206.154 322.556C206.18 322.62 206.193 322.689 206.191 322.758C206.188 322.827 206.171 322.894 206.141 322.957C206.11 323.019 206.066 323.074 206.012 323.12C202.798 326.31 197.193 326.85 193.802 326.85Z" fill="white"/>
<path d="M186.317 137.491L185.193 131.261L179.411 134.921C178.883 133.921 178.134 133.044 177.217 132.351L179.983 125.151L174.783 124.041L170.977 131.041C169.6 131.264 168.264 131.682 167.014 132.281L165.361 127.001L159.183 131.671L159.589 137.871C158.331 139.226 157.19 140.677 156.177 142.211L151.081 141.961L147.504 149.671L151.882 151.471C151.425 153.066 151.136 154.701 151.019 156.351L145.455 161.271L146.568 167.511L152.361 163.851C152.886 164.85 153.636 165.724 154.555 166.411L151.841 173.621L157.041 174.721L162.49 169.621C163.749 169.431 163.437 167.151 164.809 166.501L166.463 171.761L172.63 167.101L172.474 164.661C173.722 163.321 178.444 160.371 179.463 158.831L180.742 156.831L184.32 149.121L182.656 146.221L180.805 142.441L186.317 137.491ZM167.441 158.001C162.698 161.581 161.201 162.371 160.4 157.581C159.599 152.791 162.313 145.511 167.056 141.921C171.798 138.331 173.608 138.081 174.461 142.861C175.313 147.641 172.193 154.461 167.441 158.001Z" fill="#E0E0E0"/>
<path d="M174.826 124.041L181.576 127.781L177.769 134.761L171.02 131.021L174.826 124.041Z" fill="#F5F5F5"/>
<path d="M191.944 135.002L186.162 138.662L179.412 134.922L185.195 131.262L191.944 135.002Z" fill="#F5F5F5"/>
<path d="M191.019 152.831L186.64 151.041L179.891 147.301L184.269 149.091L191.019 152.831Z" fill="#E0E0E0"/>
<path d="M151.83 173.62L158.58 177.35L161.346 170.15L154.596 166.41L151.83 173.62Z" fill="#E0E0E0"/>
<path d="M173.151 175.5L166.411 171.76L164.758 166.5L171.507 170.24L173.151 175.5Z" fill="#E0E0E0"/>
<path d="M193.056 141.231L191.943 135.001L186.16 138.661C185.628 137.661 184.876 136.784 183.956 136.091L186.722 128.891L181.574 127.781L177.757 134.781C176.38 135.005 175.045 135.422 173.795 136.021L172.152 130.761L165.974 135.431L166.38 141.631C165.12 142.996 163.979 144.457 162.968 146.001L157.862 145.751L154.285 153.461L158.663 155.261C158.21 156.86 157.921 158.498 157.8 160.151L152.246 165.001L153.359 171.241L159.141 167.581C159.674 168.579 160.426 169.452 161.346 170.141L158.58 177.341L163.78 178.451L167.586 171.451C168.969 171.23 170.308 170.809 171.559 170.201L173.202 175.461L179.38 170.801L178.974 164.601C180.232 163.246 181.373 161.795 182.385 160.261L187.492 160.501L191.069 152.791L186.628 151.001C187.089 149.403 187.382 147.765 187.502 146.111L193.056 141.231ZM174.2 161.781C169.468 165.361 164.934 164.391 164.071 159.611C163.208 154.831 166.359 148.041 171.101 144.461C175.844 140.881 180.368 141.861 181.231 146.641C182.094 151.421 178.943 158.201 174.2 161.781Z" fill="#EBEBEB"/>
<path d="M172.152 130.74L165.402 127L159.225 131.67L165.974 135.41L172.152 130.74Z" fill="#F5F5F5"/>
<path d="M159.225 131.67L159.63 137.87L166.38 141.61L165.974 135.41L159.225 131.67Z" fill="#E0E0E0"/>
<path d="M162.969 145.951L156.219 142.211L151.123 141.971L157.862 145.711L162.969 145.951Z" fill="#F5F5F5"/>
<path d="M151.123 141.971L147.545 149.671L154.284 153.411L157.862 145.711L151.123 141.971Z" fill="#E0E0E0"/>
<path d="M157.799 160.092L151.06 156.352L145.496 161.272L152.235 165.012L157.799 160.092Z" fill="#F5F5F5"/>
<path d="M153.359 171.251L146.609 167.511L145.496 161.271L152.235 165.011L153.359 171.251Z" fill="#E0E0E0"/>
<path d="M181.574 127.781L174.824 124.041L179.983 125.151L186.722 128.891L181.574 127.781Z" fill="#F5F5F5"/>
<path d="M156.095 109.211V99.9009L148.388 103.241C147.98 101.661 147.275 100.167 146.308 98.8309L151.165 89.4209L145.237 86.1309L139.184 94.8809C137.497 94.7392 135.798 94.8985 134.171 95.3509L133.319 87.2609L124.936 91.9209L124.094 100.921C122.269 102.475 120.592 104.182 119.081 106.021L113.028 104.021L107.1 113.901L111.947 117.901C111.051 120.078 110.355 122.327 109.867 124.621L102.16 129.831V139.151L109.867 135.811C110.275 137.39 110.98 138.885 111.947 140.221L107.121 149.641L113.049 152.931L119.102 144.181C120.789 144.322 122.488 144.163 124.115 143.711L124.957 151.801L133.339 147.141L134.192 138.141C136.808 137.223 139.126 135.657 140.911 133.601L145.258 135.071L151.186 125.201L147.546 122.201C148.336 119.699 148.629 117.077 148.409 114.471L156.095 109.211ZM129.127 132.471C122.7 136.041 118.727 133.471 118.727 126.361C118.727 119.251 124.042 110.461 130.479 106.891C136.917 103.321 140.807 105.891 140.807 113.061C140.807 120.231 135.565 128.891 129.127 132.471Z" fill="#E0E0E0"/>
<path d="M151.976 89.8609L145.236 86.1309L139.184 94.8809L145.923 98.6209L151.976 89.8609Z" fill="#F5F5F5"/>
<path d="M162.845 103.64L156.095 99.9004L148.389 103.24L155.138 106.98L162.845 103.64Z" fill="#F5F5F5"/>
<path d="M131.675 155.541L124.936 151.801L124.094 143.711L130.833 147.451L131.675 155.541Z" fill="#E0E0E0"/>
<path d="M107.09 149.64L113.839 153.38L118.696 143.97L111.947 140.23L107.09 149.64Z" fill="#E0E0E0"/>
<path d="M162.845 113.001V103.691L155.138 107.001C154.734 105.42 154.029 103.925 153.058 102.591L157.915 93.1809L151.987 89.8809L145.934 98.6409C144.247 98.4942 142.547 98.6537 140.921 99.1109L140.069 91.0009L131.686 95.6609L130.833 104.661C129.012 106.218 127.334 107.924 125.821 109.761L119.768 107.761L113.84 117.641L118.697 121.641C117.796 123.817 117.1 126.066 116.617 128.361L108.91 133.571V142.891L116.617 139.551C117.02 141.132 117.726 142.627 118.697 143.961L113.84 153.371L119.768 156.661L125.821 147.911C127.507 148.053 129.207 147.893 130.833 147.441L131.686 155.531L140.069 150.871L140.911 141.871C142.735 140.317 144.413 138.61 145.924 136.771L151.977 138.771L157.905 128.901L153.048 124.901C153.948 122.725 154.644 120.476 155.128 118.181L162.845 113.001ZM135.877 136.261C129.44 139.831 124.219 136.931 124.219 129.791C124.219 122.651 129.419 113.961 135.877 110.381C142.336 106.801 147.525 109.711 147.525 116.851C147.525 123.991 142.305 132.631 135.877 136.211V136.261Z" fill="#EBEBEB"/>
<path d="M119.08 106.04L125.819 109.78L119.767 107.75L113.027 104L119.08 106.04Z" fill="#F0F0F0"/>
<path d="M113.027 104.011L107.098 113.895L113.845 117.637L119.775 107.754L113.027 104.011Z" fill="#F5F5F5"/>
<path d="M107.09 113.881L113.839 117.621L118.696 121.641L111.947 117.911L107.09 113.881Z" fill="#E0E0E0"/>
<path d="M109.867 124.631L116.616 128.371L108.91 133.581L102.16 129.841L109.867 124.631Z" fill="#F5F5F5"/>
<path d="M102.16 129.842L108.91 133.582V142.902L102.16 139.162V129.842Z" fill="#E0E0E0"/>
<path d="M140.068 91.0017L133.318 87.2617L124.936 91.9217L131.675 95.6617L140.068 91.0017Z" fill="#F5F5F5"/>
<path d="M226.596 358.049L324.356 303.769C324.571 303.697 324.758 303.561 324.89 303.382C325.022 303.203 325.093 302.989 325.093 302.769C325.093 302.55 325.022 302.336 324.89 302.157C324.758 301.977 324.571 301.842 324.356 301.769L315.318 296.769C314.759 296.498 314.141 296.357 313.514 296.357C312.887 296.357 312.269 296.498 311.71 296.769L213.918 350.999C213.703 351.072 213.516 351.207 213.384 351.387C213.253 351.566 213.182 351.78 213.182 351.999C213.182 352.219 213.253 352.433 213.384 352.612C213.516 352.791 213.703 352.927 213.918 352.999L222.987 357.999C223.543 358.278 224.159 358.428 224.785 358.436C225.412 358.445 226.032 358.312 226.596 358.049Z" fill="#E0E0E0"/>
<path d="M321.673 94.2002L233.523 143.14C232.212 143.962 231.122 145.07 230.339 146.373C229.557 147.676 229.105 149.138 229.02 150.64V351.71C229.02 354.47 231.037 355.59 233.523 354.21L321.673 305.27C322.985 304.45 324.077 303.343 324.86 302.039C325.642 300.736 326.093 299.273 326.176 297.77V96.7002C326.176 93.9402 324.169 92.8202 321.673 94.2002Z" fill="#455A64"/>
<path d="M233.522 143.14L321.673 94.1997C323.898 92.9597 325.739 93.7297 326.113 95.8797C325.905 94.5279 325.402 93.2338 324.637 92.0825C323.871 90.9311 322.861 89.9486 321.673 89.1997L318.012 87.1997C316.616 86.5189 315.073 86.1641 313.509 86.1641C311.944 86.1641 310.401 86.5189 309.005 87.1997L220.845 136.1C219.517 136.9 218.422 138.012 217.662 139.33L230.34 146.33C231.099 145.022 232.195 143.924 233.522 143.14Z" fill="#37474F"/>
<path d="M216.32 344.669C216.406 346.171 216.858 347.633 217.64 348.936C218.423 350.239 219.513 351.347 220.824 352.169L224.495 354.169C225.765 354.78 227.156 355.127 228.575 355.185C229.995 355.244 231.411 355.013 232.732 354.509C230.652 355.289 228.998 354.139 228.998 351.669V150.639C229.05 149.13 229.505 147.66 230.319 146.369L217.641 139.369C216.839 140.65 216.384 142.105 216.32 143.599V344.669Z" fill="#263238"/>
<path d="M235.946 169.93L319.281 123.68C320.779 122.86 321.985 123.53 321.985 125.18V274C321.935 274.902 321.664 275.78 321.195 276.562C320.725 277.344 320.069 278.008 319.281 278.5L235.977 324.75C234.48 325.58 233.273 324.91 233.273 323.25V174.43C233.321 173.531 233.587 172.655 234.052 171.873C234.516 171.092 235.165 170.426 235.946 169.93Z" fill="white"/>
<path d="M277.598 126.289C277.138 126.58 276.756 126.97 276.481 127.428C276.207 127.887 276.048 128.401 276.018 128.929C276.018 129.929 276.725 130.299 277.598 129.809C278.06 129.521 278.444 129.131 278.719 128.672C278.994 128.213 279.151 127.698 279.179 127.169C279.179 126.199 278.472 125.809 277.598 126.289Z" fill="#37474F"/>
<path d="M277.597 308.74C275.779 309.883 274.267 311.423 273.183 313.233C272.099 315.043 271.473 317.074 271.357 319.16C271.357 322.99 274.155 324.55 277.597 322.63C279.415 321.486 280.927 319.946 282.011 318.136C283.095 316.326 283.721 314.296 283.837 312.21C283.858 308.38 281.05 306.82 277.597 308.74Z" fill="#37474F"/>
<path d="M262.632 141.77C261.718 142.354 260.959 143.135 260.417 144.053C259.875 144.97 259.565 145.997 259.512 147.05C259.512 148.99 260.926 149.78 262.632 148.81C263.555 148.232 264.324 147.453 264.875 146.535C265.426 145.618 265.745 144.588 265.804 143.53C265.804 141.59 264.389 140.8 262.632 141.77Z" fill="#37474F"/>
<path d="M270.4 141.11C270.4 142.41 271.44 142.9 272.657 142.21L293.457 130.64C294.102 130.253 294.642 129.725 295.034 129.099C295.426 128.474 295.659 127.768 295.714 127.04C295.714 125.75 294.674 125.26 293.457 125.95L272.657 137.52C272.014 137.906 271.475 138.432 271.083 139.055C270.691 139.679 270.457 140.383 270.4 141.11Z" fill="#37474F"/>
<path d="M223.351 176.369C224.089 176.832 224.704 177.455 225.145 178.188C225.586 178.921 225.841 179.744 225.889 180.589C225.889 182.149 224.755 182.779 223.351 181.999C222.616 181.535 222.004 180.912 221.565 180.179C221.126 179.446 220.872 178.624 220.824 177.779C220.824 176.229 221.958 175.599 223.351 176.369Z" fill="#37474F"/>
<path d="M223.351 195.149C224.089 195.611 224.704 196.234 225.145 196.967C225.586 197.701 225.841 198.523 225.889 199.369C225.889 200.919 224.755 201.549 223.351 200.779C222.616 200.315 222.004 199.691 221.565 198.958C221.126 198.225 220.872 197.404 220.824 196.559C220.824 194.999 221.958 194.369 223.351 195.149Z" fill="#37474F"/>
<path d="M222.561 176.749C223.299 177.211 223.913 177.834 224.354 178.568C224.795 179.301 225.05 180.124 225.099 180.969C225.099 182.519 223.965 183.149 222.561 182.379C221.823 181.917 221.209 181.294 220.768 180.561C220.327 179.828 220.072 179.005 220.023 178.159C220.034 176.599 221.167 175.999 222.561 176.749Z" fill="#455A64"/>
<path d="M222.561 195.52C223.3 195.983 223.916 196.608 224.357 197.343C224.798 198.078 225.052 198.902 225.099 199.75C225.099 201.3 223.965 201.93 222.561 201.15C221.821 200.689 221.206 200.067 220.764 199.333C220.323 198.6 220.069 197.776 220.023 196.93C220.034 195.38 221.167 194.75 222.561 195.52Z" fill="#455A64"/>
<path d="M338.855 129.889C338.855 128.229 337.648 127.559 336.151 128.389L326.177 133.919L252.847 174.639C252.059 175.131 251.403 175.796 250.933 176.578C250.464 177.36 250.193 178.237 250.143 179.139V327.919C250.143 329.579 251.349 330.249 252.847 329.419L326.208 288.689L336.151 283.169C336.938 282.677 337.594 282.013 338.064 281.231C338.534 280.449 338.805 279.571 338.855 278.669V129.889Z" fill="white"/>
<path d="M339.893 129.89C339.959 129.389 339.869 128.88 339.635 128.427C339.401 127.974 339.034 127.598 338.579 127.345C338.124 127.092 337.601 126.974 337.076 127.005C336.552 127.036 336.048 127.215 335.629 127.52L326.113 132.81L252.325 173.81C251.375 174.387 250.585 175.177 250.023 176.112C249.462 177.048 249.145 178.101 249.101 179.18V327.92C249.059 328.419 249.159 328.92 249.39 329.369C249.621 329.818 249.974 330.199 250.411 330.47C250.784 330.678 251.208 330.785 251.639 330.78C252.248 330.762 252.843 330.593 253.365 330.29L327.205 289.29L336.7 284.02C337.645 283.438 338.431 282.646 338.991 281.712C339.552 280.778 339.872 279.728 339.924 278.65L339.893 129.89ZM326.134 287.58L325.281 288.06L252.367 328.54C252.244 328.631 252.102 328.694 251.951 328.725C251.8 328.756 251.643 328.754 251.493 328.72C251.358 328.64 251.223 328.36 251.223 327.9V179.14C251.277 178.414 251.501 177.709 251.879 177.079C252.258 176.448 252.78 175.908 253.407 175.5L326.248 135L336.648 129.21C336.771 129.12 336.913 129.056 337.064 129.025C337.215 128.994 337.371 128.996 337.522 129.03C337.657 129.11 337.792 129.39 337.792 129.85V278.67C337.738 279.396 337.514 280.101 337.136 280.732C336.757 281.362 336.235 281.902 335.608 282.31L326.113 287.58H326.134Z" fill="#546E81"/>
<path d="M294.498 164.46C303.858 159.28 311.398 163.46 311.398 173.85C311.398 184.24 303.826 196.85 294.498 201.99C285.169 207.13 277.598 202.99 277.598 192.61C277.598 182.23 285.169 169.65 294.498 164.46Z" fill="#546E81"/>
<path d="M294.498 172.619C297.525 170.939 299.979 172.299 299.979 175.619C299.876 177.448 299.326 179.228 298.374 180.815C297.422 182.401 296.094 183.749 294.498 184.749C291.472 186.429 289.018 185.069 289.018 181.749C289.12 179.92 289.67 178.141 290.623 176.554C291.575 174.968 292.903 173.62 294.498 172.619Z" fill="#546E81"/>
<path d="M305.178 190.539C305.178 185.019 301.153 182.779 296.171 185.539L293.051 187.269C288.08 190.029 284.045 196.749 284.045 202.269V203.759C286.926 204.669 290.545 204.179 294.445 201.989C298.765 199.427 302.419 195.948 305.126 191.819L305.178 190.539Z" fill="#546E81"/>
<path opacity="0.7" d="M294.498 172.619C297.525 170.939 299.979 172.299 299.979 175.619C299.876 177.448 299.326 179.228 298.374 180.815C297.422 182.401 296.094 183.749 294.498 184.749C291.472 186.429 289.018 185.069 289.018 181.749C289.12 179.92 289.67 178.141 290.623 176.554C291.575 174.968 292.903 173.62 294.498 172.619Z" fill="white"/>
<path opacity="0.7" d="M305.178 190.539C305.178 185.019 301.153 182.779 296.171 185.539L293.051 187.269C288.08 190.029 284.045 196.749 284.045 202.269V203.759C286.926 204.669 290.545 204.179 294.445 201.989C298.765 199.427 302.419 195.948 305.126 191.819L305.178 190.539Z" fill="white"/>
<path d="M261.799 224.84L283.546 212.77C284.586 212.22 285.345 212.66 285.345 213.77V214.46C285.312 215.061 285.132 215.646 284.819 216.167C284.506 216.688 284.07 217.131 283.546 217.46L261.799 229.53C260.811 230.08 260 229.63 260 228.53V227.84C260.034 227.239 260.214 226.654 260.527 226.133C260.839 225.612 261.275 225.169 261.799 224.84Z" fill="#546E81"/>
<path opacity="0.1" d="M261.799 224.84L283.546 212.77C284.586 212.22 285.345 212.66 285.345 213.77V214.46C285.312 215.061 285.132 215.646 284.819 216.167C284.506 216.688 284.07 217.131 283.546 217.46L261.799 229.53C260.811 230.08 260 229.63 260 228.53V227.84C260.034 227.239 260.214 226.654 260.527 226.133C260.839 225.612 261.275 225.169 261.799 224.84Z" fill="black"/>
<path d="M260.905 239.409L326.695 202.889C327.184 202.609 327.59 202.829 327.59 203.389V210.769C327.571 211.068 327.481 211.36 327.326 211.62C327.171 211.88 326.955 212.102 326.695 212.269L260.905 248.789C260.406 249.069 260 248.839 260 248.289V240.909C260.018 240.608 260.109 240.316 260.266 240.055C260.423 239.795 260.642 239.573 260.905 239.409Z" fill="#546E81"/>
<path opacity="0.2" d="M260.905 239.409L326.695 202.889C327.184 202.609 327.59 202.829 327.59 203.389V210.769C327.571 211.068 327.481 211.36 327.326 211.62C327.171 211.88 326.955 212.102 326.695 212.269L260.905 248.789C260.406 249.069 260 248.839 260 248.289V240.909C260.018 240.608 260.109 240.316 260.266 240.055C260.423 239.795 260.642 239.573 260.905 239.409Z" fill="white"/>
<path d="M261.799 257.67L283.546 245.6C284.586 245.05 285.345 245.5 285.345 246.6V247.29C285.313 247.891 285.133 248.476 284.82 248.998C284.507 249.519 284.071 249.962 283.546 250.29L261.799 262.36C260.811 262.92 260 262.47 260 261.36V260.67C260.035 260.07 260.217 259.485 260.529 258.964C260.841 258.444 261.276 258 261.799 257.67Z" fill="#546E81"/>
<path opacity="0.1" d="M261.799 257.67L283.546 245.6C284.586 245.05 285.345 245.5 285.345 246.6V247.29C285.313 247.891 285.133 248.476 284.82 248.998C284.507 249.519 284.071 249.962 283.546 250.29L261.799 262.36C260.811 262.92 260 262.47 260 261.36V260.67C260.035 260.07 260.217 259.485 260.529 258.964C260.841 258.444 261.276 258 261.799 257.67Z" fill="black"/>
<path d="M260.905 272.239L326.695 235.719C327.184 235.439 327.59 235.669 327.59 236.219V243.599C327.571 243.899 327.481 244.19 327.326 244.45C327.171 244.711 326.955 244.933 326.695 245.099L260.905 281.619C260.406 281.899 260 281.679 260 281.119V273.739C260.018 273.438 260.109 273.146 260.266 272.885C260.423 272.625 260.642 272.403 260.905 272.239Z" fill="#546E81"/>
<path opacity="0.2" d="M260.905 272.239L326.695 235.719C327.184 235.439 327.59 235.669 327.59 236.219V243.599C327.571 243.899 327.481 244.19 327.326 244.45C327.171 244.711 326.955 244.933 326.695 245.099L260.905 281.619C260.406 281.899 260 281.679 260 281.119V273.739C260.018 273.438 260.109 273.146 260.266 272.885C260.423 272.625 260.642 272.403 260.905 272.239Z" fill="white"/>
<path d="M287.145 276.43L313.145 262.02C314.185 261.46 314.955 261.91 314.955 263.02V270.74C314.92 271.342 314.739 271.928 314.424 272.449C314.11 272.97 313.671 273.413 313.145 273.74L287.145 288.16C286.105 288.71 285.346 288.26 285.346 287.16V279.43C285.382 278.83 285.563 278.246 285.876 277.725C286.188 277.204 286.623 276.761 287.145 276.43Z" fill="#546E81"/>
<path opacity="0.1" d="M287.145 276.43L313.145 262.02C314.185 261.46 314.955 261.91 314.955 263.02V270.74C314.92 271.342 314.739 271.928 314.424 272.449C314.11 272.97 313.671 273.413 313.145 273.74L287.145 288.16C286.105 288.71 285.346 288.26 285.346 287.16V279.43C285.382 278.83 285.563 278.246 285.876 277.725C286.188 277.204 286.623 276.761 287.145 276.43Z" fill="black"/>
<path d="M348.713 243.849C348.713 243.849 335.941 226.909 335.193 224.849C334.6 223.329 335.193 221.069 335.38 220.019C335.567 218.969 335.733 216.629 335.921 216.019C336.233 214.879 334.704 215.109 333.841 216.149C332.977 217.189 332.686 219.269 332.239 219.609C331.792 219.949 328.391 215.179 326.613 212.979C324.834 210.779 323.721 209.439 322.629 210.259C321.849 210.849 322.432 212.129 323.721 214.009C324.475 215.021 325.169 216.073 325.801 217.159C325.999 217.569 324.938 217.599 324.366 218.449C323.919 219.109 324.366 220.179 323.742 220.689C323.358 220.97 323.095 221.377 323.003 221.832C322.911 222.288 322.996 222.76 323.243 223.159C324.401 224.907 325.894 226.427 327.642 227.639C329.556 228.909 330.325 229.359 331.459 231.089C332.593 232.819 342.764 250.489 343.45 251.549C344.137 252.609 345.457 254.769 347.465 254.829C349.472 254.889 365.904 241.289 366.746 240.609C369.45 238.439 370.313 238.129 370.771 240.079C370.929 240.772 371.047 241.473 371.125 242.179C371.447 244.659 373.205 253.519 373.205 253.519C373.205 253.519 381.525 257.389 388.357 255.519C395.19 253.649 397.499 250.859 397.499 250.859L394.077 245.499C395.003 243.289 399.277 234.329 400.661 228.059L379.237 224.729C378.8 224.639 378.093 224.469 377.157 224.239C375.981 223.939 372.997 222.949 370.74 224.849C363.377 231.019 348.733 243.849 348.733 243.849" fill="#FFA8A7"/>
<path d="M391.187 347.789L387.35 352.919C389.094 353.702 390.999 354.095 392.924 354.069C396.366 354.189 397.313 353.069 397.438 352.849C398.02 351.649 397.115 349.489 396.866 347.629L391.187 347.789Z" fill="#37474F"/>
<path d="M387.566 350.458C387.566 350.458 382.907 350.169 379.693 349.789C376.48 349.409 373.932 350.908 374.681 352.178C375.429 353.448 377.208 354.508 379.974 355.398C382.335 356.168 385.174 356.718 387.629 357.398C390.083 358.078 391.789 358.968 393.213 358.488C394.805 357.958 395.491 357.349 395.356 356.229C395.008 354.635 394.578 353.06 394.066 351.509L387.566 350.458Z" fill="#37474F"/>
<path d="M397.437 342.64C397.437 342.64 396.855 347.3 396.813 348.3C396.771 349.3 392.081 349.62 391.187 347.79L391.041 342.09L397.437 342.64Z" fill="#F28F8F"/>
<path d="M392.715 345.5L394.39 352.58C394.39 352.58 394.546 353.44 390.718 353.99C386.891 354.54 380.88 352.06 379.85 351.56C378.821 351.06 378.706 350.05 382.471 350.25C386.236 350.45 387.567 350.46 387.567 350.46L386.34 347.33L392.715 345.5Z" fill="#FFA8A7"/>
<path d="M400.599 227.999L403.251 227.289C403.251 227.289 408.794 244.159 409.408 245.789C410.022 247.419 410.718 249.139 409.522 251.149C408.098 253.539 400.599 263.149 400.599 263.149L395.836 258.669L401.244 249.149L396.46 239.849L400.599 227.999Z" fill="#F28F8F"/>
<path d="M373.362 206.089C372.74 204.967 372.424 203.712 372.444 202.44C372.464 201.169 372.819 199.923 373.476 198.819C376.118 194.109 382.004 191.819 389.014 192.689C392.258 193.099 396.086 195.689 398.176 199.559C400.485 203.849 400.703 212.489 401.296 215.759L373.362 206.089Z" fill="#37474F"/>
<path d="M373.173 207.939C373.173 207.939 371.509 210.989 371.8 211.269C372.231 211.512 372.703 211.681 373.193 211.769L373.173 207.939Z" fill="#FFA8A7"/>
<path d="M378.227 198.3C376.417 199.43 373.297 201.51 373.162 208.36C373.017 215.36 374.057 217.67 375.138 218.48C375.866 219.03 380.141 218.75 381.971 218.34C383.801 217.93 389.074 215.42 390.977 211.61C393.213 207.13 392.756 200.61 389.438 198.61C387.75 197.65 385.835 197.117 383.874 197.063C381.913 197.009 379.97 197.434 378.227 198.3Z" fill="#FFA8A7"/>
<path d="M397.437 250.82C400.64 255.62 403.677 259.82 404.343 265.24C405.716 276.63 401.223 289.65 400.255 298.08C402.074 300.478 403.123 303.336 403.272 306.3C403.272 309.79 397.437 342.64 397.437 342.64C397.437 342.64 393.194 343.88 391.041 342.09L387.037 281.66L389.117 274.3L397.437 250.82Z" fill="#546E81"/>
<path opacity="0.2" d="M397.437 250.82C400.64 255.62 403.677 259.82 404.343 265.24C405.716 276.63 401.223 289.65 400.255 298.08C402.074 300.478 403.123 303.336 403.272 306.3C403.272 309.79 397.437 342.64 397.437 342.64C397.437 342.64 393.194 343.88 391.041 342.09L387.037 281.66L389.117 274.3L397.437 250.82Z" fill="black"/>
<path d="M387.037 281.66L389.117 274.3C393.1 273.292 396.941 271.824 400.557 269.93C400.557 269.93 398.394 273.72 392.175 275.8L388.961 285.25L388.691 306.9L387.037 281.66Z" fill="#546E81"/>
<path opacity="0.3" d="M387.037 281.66L389.117 274.3C393.1 273.292 396.941 271.824 400.557 269.93C400.557 269.93 398.394 273.72 392.175 275.8L388.961 285.25L388.691 306.9L387.037 281.66Z" fill="black"/>
<path d="M397.436 250.82C399.152 253.52 403.25 258.12 402.376 262.55C401.336 267.91 398.32 271.68 389.147 274.3L380.536 304.3C380.536 304.3 385.018 308.3 386.391 312.17C387.764 316.04 392.714 345.52 392.714 345.52C392.714 345.52 391.175 347.93 386.339 347.35C386.339 347.35 369.481 310.35 368.295 307.94C366.856 305.5 366.352 302.651 366.87 299.89C367.401 296.01 373.11 253.54 373.11 253.54L397.436 250.82Z" fill="#546E81"/>
<path opacity="0.2" d="M397.436 250.82C399.152 253.52 403.25 258.12 402.376 262.55C401.336 267.91 398.32 271.68 389.147 274.3L380.536 304.3C380.536 304.3 385.018 308.3 386.391 312.17C387.764 316.04 392.714 345.52 392.714 345.52C392.714 345.52 391.175 347.93 386.339 347.35C386.339 347.35 369.481 310.35 368.295 307.94C366.856 305.5 366.352 302.651 366.87 299.89C367.401 296.01 373.11 253.54 373.11 253.54L397.436 250.82Z" fill="black"/>
<path d="M400.599 228L379.175 224.67C378.738 224.58 378.031 224.41 377.095 224.18C377.095 224.18 376.179 237.1 370.678 240.06C370.813 240.68 370.927 241.37 371.031 242.16C371.354 244.64 373.111 253.5 373.111 253.5C373.111 253.5 381.431 257.37 388.264 255.5C395.097 253.63 397.406 250.84 397.406 250.84L393.984 245.48C394.941 243.25 399.247 234.29 400.599 228Z" fill="#546E81"/>
<path opacity="0.7" d="M400.599 228L379.175 224.67C378.738 224.58 378.031 224.41 377.095 224.18C377.095 224.18 376.179 237.1 370.678 240.06C370.813 240.68 370.927 241.37 371.031 242.16C371.354 244.64 373.111 253.5 373.111 253.5C373.111 253.5 381.431 257.37 388.264 255.5C395.097 253.63 397.406 250.84 397.406 250.84L393.984 245.48C394.941 243.25 399.247 234.29 400.599 228Z" fill="white"/>
<path d="M394.952 243.35C392.107 244.992 389.126 246.407 386.039 247.58C388.841 247.526 391.583 246.797 394.016 245.46L394.952 243.35Z" fill="#546E81"/>
<path d="M377.697 198.64C377.697 198.64 376.657 205.14 379.112 208.96C379.112 208.96 380.027 206.37 382.305 206.86C384.582 207.35 384.707 210.24 383.105 211.86C382.698 212.315 382.166 212.65 381.57 212.827C380.974 213.003 380.338 213.015 379.736 212.86C379.736 212.86 379.372 217.56 379.174 221.5C378.977 225.44 377.895 234.03 382.502 237.5C387.109 240.97 398.674 242.19 404.093 234.91C407.109 230.86 403.105 223.7 401.243 215.67C399.527 208.29 398.56 197.35 390.417 195.59C382.273 193.83 377.697 198.64 377.697 198.64Z" fill="#37474F"/>
<path d="M407.576 109.831L405.86 110.831C406.004 110.243 406.084 109.644 406.099 109.041C406.099 105.691 403.655 104.341 400.639 106.041C399.721 106.573 398.902 107.249 398.216 108.041C398.216 103.541 394.929 101.711 390.873 103.961C388.736 105.301 386.957 107.107 385.681 109.232C384.406 111.356 383.669 113.741 383.531 116.191C383.531 116.421 383.531 116.641 383.531 116.861C382.486 116.734 381.428 116.968 380.546 117.521C378.957 118.516 377.634 119.858 376.685 121.438C375.737 123.017 375.189 124.789 375.086 126.611C375.085 127.034 375.131 127.456 375.221 127.871L374.306 128.381C371.82 129.761 369.803 132.451 369.803 134.381C369.803 136.311 371.82 136.771 374.306 135.381L407.586 116.931C410.072 115.551 412.089 112.861 412.089 110.931C412.089 109.001 410.061 108.441 407.576 109.831Z" fill="#EBEBEB"/>
</svg>
