<svg width="384" height="377" viewBox="0 0 384 377" fill="none" xmlns="http://www.w3.org/2000/svg">
<path d="M400 282.92H0V283.12H400V282.92Z" fill="#EBEBEB"/>
<path d="M359.919 295.793H343.863V295.993H359.919V295.793Z" fill="#EBEBEB"/>
<path d="M311.6 292.992H285.984V293.192H311.6V292.992Z" fill="#EBEBEB"/>
<path d="M248.936 288.367H219.352V288.567H248.936V288.367Z" fill="#EBEBEB"/>
<path d="M94.9192 294.256H60.3672V294.456H94.9192V294.256Z" fill="#EBEBEB"/>
<path d="M53.2398 294.256H48.1758V294.456H53.2398V294.256Z" fill="#EBEBEB"/>
<path d="M135.382 288.264H105.398V288.464H135.382V288.264Z" fill="#EBEBEB"/>
<path d="M189.598 247.24H35.1264C33.9163 247.238 32.7565 246.756 31.9015 245.899C31.0466 245.043 30.5664 243.882 30.5664 242.672V25.528C30.5769 24.3248 31.0618 23.1744 31.9156 22.3266C32.7694 21.4788 33.9232 21.0021 35.1264 21H189.598C190.81 21 191.972 21.4813 192.828 22.3379C193.685 23.1946 194.166 24.3565 194.166 25.568V242.672C194.166 243.884 193.685 245.045 192.828 245.902C191.972 246.759 190.81 247.24 189.598 247.24ZM35.1264 21.16C33.9693 21.1621 32.8604 21.6233 32.0429 22.4422C31.2255 23.2611 30.7664 24.3709 30.7664 25.528V242.672C30.7664 243.829 31.2255 244.939 32.0429 245.758C32.8604 246.577 33.9693 247.038 35.1264 247.04H189.598C190.756 247.038 191.866 246.577 192.685 245.758C193.503 244.94 193.964 243.83 193.966 242.672V25.528C193.964 24.3702 193.503 23.2604 192.685 22.4417C191.866 21.623 190.756 21.1621 189.598 21.16H35.1264Z" fill="#EBEBEB"/>
<path d="M362.65 247.24H208.17C206.959 247.238 205.798 246.756 204.942 245.9C204.086 245.044 203.604 243.883 203.602 242.672V25.528C203.614 24.3241 204.101 23.1737 204.956 22.3261C205.811 21.4785 206.966 21.002 208.17 21H362.65C363.851 21.0042 365.003 21.4818 365.855 22.3294C366.707 23.177 367.191 24.3262 367.202 25.528V242.672C367.202 243.881 366.723 245.04 365.869 245.896C365.016 246.753 363.858 247.236 362.65 247.24ZM208.17 21.16C207.012 21.1621 205.902 21.623 205.083 22.4417C204.265 23.2604 203.804 24.3702 203.802 25.528V242.672C203.804 243.83 204.265 244.94 205.083 245.758C205.902 246.577 207.012 247.038 208.17 247.04H362.65C363.807 247.038 364.917 246.577 365.736 245.758C366.555 244.94 367.015 243.83 367.018 242.672V25.528C367.015 24.3702 366.555 23.2604 365.736 22.4417C364.917 21.623 363.807 21.1621 362.65 21.16H208.17Z" fill="#EBEBEB"/>
<path d="M102.399 206.648C94.5508 181.305 75.9988 109.576 94.7028 47.2405C94.7739 47.0559 94.7687 46.8507 94.6884 46.6699C94.6082 46.4891 94.4594 46.3476 94.2748 46.2765C94.0902 46.2054 93.8849 46.2106 93.7041 46.2909C93.5234 46.3711 93.3819 46.5199 93.3108 46.7045C92.0028 49.5223 90.8934 52.428 89.9908 55.4005C89.9395 55.5626 89.8342 55.7022 89.6925 55.7961C89.5508 55.89 89.3812 55.9326 89.2119 55.9167C89.0427 55.9008 88.884 55.8274 88.7622 55.7087C88.6405 55.5901 88.563 55.4333 88.5428 55.2645C87.7724 48.0331 87.5051 40.7569 87.7428 33.4885C87.7457 33.3045 87.681 33.1258 87.561 32.9862C87.441 32.8467 87.274 32.756 87.0916 32.7314C86.9092 32.7067 86.7241 32.7498 86.5714 32.8525C86.4186 32.9552 86.3088 33.1103 86.2628 33.2885C84.6729 39.7705 83.9307 46.4315 84.0548 53.1045C84.0714 53.2989 84.011 53.4921 83.8866 53.6424C83.7621 53.7927 83.5836 53.8881 83.3895 53.908C83.1954 53.928 83.0012 53.8708 82.8488 53.749C82.6964 53.6271 82.598 53.4502 82.5748 53.2565C82.0628 50.4805 81.5988 47.5045 81.2068 44.3525C81.1805 44.1739 81.0909 44.0108 80.9543 43.8928C80.8177 43.7748 80.6433 43.7099 80.4628 43.7099C80.2823 43.7099 80.1078 43.7748 79.9712 43.8928C79.8346 44.0108 79.745 44.1739 79.7188 44.3525C78.7277 56.5006 80.5537 68.7136 85.0548 80.0405C85.0548 80.0405 85.0548 80.1125 85.0548 80.1525C80.0054 68.9704 76.0743 57.3164 73.3188 45.3605C73.2809 45.1806 73.1777 45.0211 73.0292 44.9128C72.8806 44.8045 72.6972 44.755 72.5144 44.7739C72.3315 44.7928 72.1621 44.8787 72.0388 45.0151C71.9156 45.1515 71.8471 45.3287 71.8468 45.5125C71.6953 51.4644 72.1159 57.4171 73.1028 63.2885C73.1376 63.4768 73.0984 63.6713 72.9935 63.8314C72.8885 63.9916 72.7259 64.1051 72.5393 64.1484C72.3528 64.1917 72.1568 64.1614 71.992 64.0638C71.8273 63.9662 71.7065 63.8089 71.6548 63.6245C71.3108 62.5205 70.9748 61.4085 70.6548 60.2645C70.603 60.0925 70.4913 59.9446 70.3399 59.8478C70.1885 59.751 70.0074 59.7116 69.8295 59.7368C69.6516 59.7619 69.4886 59.8499 69.3699 59.9849C69.2513 60.1198 69.1849 60.2928 69.1828 60.4725C69.1973 68.1915 70.0911 75.8838 71.8468 83.4005C71.8927 83.5843 71.8668 83.7786 71.7744 83.9439C71.682 84.1092 71.53 84.2331 71.3494 84.2902C71.1688 84.3473 70.9733 84.3334 70.8026 84.2514C70.6319 84.1693 70.4989 84.0252 70.4308 83.8485C67.5828 76.6725 64.7188 68.6805 62.2228 60.2005C62.1707 60.0278 62.0584 59.8796 61.9062 59.7829C61.754 59.6861 61.572 59.6473 61.3936 59.6735C61.2152 59.6997 61.0521 59.7891 60.9341 59.9255C60.8161 60.0619 60.751 60.2362 60.7508 60.4165C61.1988 89.8005 77.3348 117.8 82.9988 126.688C72.0343 110.08 62.5805 92.5213 54.7508 74.2245C54.6766 74.0632 54.5478 73.9334 54.3871 73.8579C54.2264 73.7825 54.0442 73.7663 53.8728 73.8123C53.7013 73.8583 53.5516 73.9634 53.4502 74.1091C53.3489 74.2549 53.3023 74.4318 53.3188 74.6085C54.6244 84.2892 57.1373 93.7683 60.7988 102.825C60.8687 103.001 60.8688 103.197 60.7992 103.373C60.7295 103.549 60.5953 103.692 60.4239 103.772C60.2525 103.853 60.0568 103.865 59.8768 103.806C59.6967 103.748 59.5458 103.623 59.4548 103.457C57.5348 99.9045 55.6548 96.2565 53.8548 92.4405C53.7743 92.2835 53.6412 92.1597 53.4788 92.0909C53.3163 92.0221 53.1348 92.0126 52.966 92.0641C52.7973 92.1156 52.652 92.2247 52.5556 92.3725C52.4592 92.5203 52.4179 92.6973 52.4388 92.8725C54.5428 106.68 59.9588 120.776 65.8788 132.944C65.949 133.117 65.9528 133.309 65.8895 133.484C65.8262 133.659 65.7004 133.804 65.5362 133.892C65.3721 133.979 65.1813 134.003 65.0008 133.958C64.8202 133.913 64.6628 133.803 64.5588 133.648C61.5638 128.538 58.8323 123.278 56.3748 117.889C56.3049 117.724 56.178 117.59 56.0173 117.511C55.8566 117.432 55.6729 117.414 55.4999 117.46C55.3269 117.505 55.1761 117.612 55.0753 117.76C54.9744 117.908 54.9302 118.087 54.9508 118.265C55.8612 127.74 58.5251 136.963 62.8068 145.465C62.8991 145.635 62.9212 145.835 62.8686 146.021C62.8159 146.208 62.6925 146.366 62.5247 146.463C62.3569 146.56 62.1579 146.588 61.97 146.54C61.7822 146.493 61.6203 146.374 61.5188 146.209C58.9268 142.345 56.3668 138.265 53.9108 134.001C53.8199 133.852 53.6802 133.739 53.5156 133.682C53.351 133.625 53.1717 133.627 53.0083 133.687C52.8449 133.748 52.7075 133.863 52.6197 134.014C52.5319 134.164 52.499 134.34 52.5268 134.512C54.6948 146.449 60.0548 157.409 66.2148 166.705C66.3187 166.862 66.3587 167.054 66.3267 167.24C66.2946 167.426 66.193 167.593 66.0424 167.707C65.8918 167.821 65.7034 167.873 65.5155 167.854C65.3277 167.834 65.1544 167.743 65.0308 167.601C60.5041 162.374 56.2555 156.913 52.3028 151.241C52.2049 151.092 52.0569 150.983 51.8858 150.934C51.7146 150.886 51.5316 150.9 51.37 150.974C51.2083 151.049 51.0788 151.179 51.0048 151.341C50.9308 151.502 50.9173 151.686 50.9668 151.857C59.1748 183.241 93.6548 208.36 94.3108 208.84L97.0548 210.617C97.6602 211.025 98.3776 211.236 99.1079 211.22C99.8383 211.203 100.545 210.96 101.132 210.525C101.718 210.09 102.155 209.483 102.382 208.788C102.609 208.094 102.615 207.346 102.399 206.648Z" fill="#F5F5F5"/>
<path d="M114.68 191.657C113.232 169.937 112.048 109.169 138.808 62.9608C138.899 62.8271 138.933 62.6627 138.903 62.5037C138.873 62.3446 138.781 62.204 138.648 62.1128C138.514 62.0216 138.35 61.9872 138.191 62.0172C138.032 62.0472 137.891 62.1391 137.8 62.2728C136.229 64.268 134.801 66.3719 133.528 68.5688C133.454 68.6866 133.343 68.7761 133.213 68.8229C133.082 68.8697 132.939 68.871 132.808 68.8265C132.676 68.7821 132.564 68.6945 132.488 68.578C132.413 68.4616 132.379 68.323 132.392 68.1848C133.149 62.2662 134.315 56.4069 135.88 50.6488C135.912 50.5049 135.891 50.3542 135.822 50.2242C135.752 50.0941 135.639 49.9933 135.501 49.94C135.364 49.8868 135.212 49.8846 135.073 49.9339C134.934 49.9832 134.817 50.0808 134.744 50.2088C132.243 55.0787 130.385 60.2526 129.216 65.6008C129.196 65.761 129.113 65.9066 128.985 66.0056C128.858 66.1047 128.696 66.149 128.536 66.1288C128.376 66.1087 128.23 66.0257 128.131 65.8982C128.032 65.7706 127.988 65.609 128.008 65.4488C128.128 63.1368 128.32 60.6488 128.608 58.0808C128.63 57.9268 128.593 57.7702 128.505 57.6422C128.416 57.5143 128.282 57.4246 128.13 57.3912C127.979 57.3578 127.82 57.3831 127.686 57.462C127.551 57.541 127.452 57.6677 127.408 57.8168C124.312 67.3272 123.452 77.4239 124.896 87.3208C124.893 87.3474 124.893 87.3742 124.896 87.4008C122.992 77.5187 122.073 67.4723 122.152 57.4088C122.149 57.2612 122.094 57.1193 121.996 57.0091C121.898 56.8988 121.763 56.8275 121.617 56.8081C121.47 56.7887 121.322 56.8226 121.198 56.9035C121.075 56.9843 120.985 57.1069 120.944 57.2488C119.689 61.9618 118.885 66.7835 118.544 71.6488C118.527 71.7991 118.455 71.9377 118.342 72.0384C118.229 72.1391 118.083 72.1947 117.932 72.1947C117.781 72.1947 117.635 72.1391 117.522 72.0384C117.409 71.9377 117.337 71.7991 117.32 71.6488C117.256 70.7048 117.2 69.7448 117.16 68.7768C117.148 68.6325 117.086 68.4971 116.984 68.3942C116.882 68.2913 116.747 68.2276 116.603 68.2142C116.459 68.2009 116.314 68.2387 116.195 68.3211C116.076 68.4035 115.99 68.5252 115.952 68.6648C114.497 74.8236 113.751 81.1285 113.728 87.4568C113.723 87.6102 113.662 87.7564 113.556 87.8668C113.449 87.9773 113.305 88.0441 113.152 88.0541C112.999 88.0641 112.848 88.0166 112.728 87.9209C112.608 87.8253 112.528 87.6883 112.504 87.5368C111.592 81.2888 110.832 74.3608 110.448 67.1048C110.436 66.9605 110.374 66.8251 110.272 66.7222C110.17 66.6193 110.035 66.5556 109.891 66.5422C109.747 66.5289 109.602 66.5667 109.483 66.6491C109.364 66.7315 109.278 66.8532 109.24 66.9928C104 90.6008 111.576 115.961 114.4 124.201C108.804 108.875 104.593 93.0783 101.816 77.0008C101.792 76.8565 101.718 76.7252 101.607 76.6305C101.495 76.5358 101.354 76.4838 101.208 76.4838C101.062 76.4838 100.92 76.5358 100.809 76.6305C100.697 76.7252 100.623 76.8565 100.6 77.0008C99.8041 84.9683 100.008 93.004 101.208 100.921C101.241 101.079 101.209 101.244 101.121 101.379C101.032 101.514 100.894 101.608 100.736 101.641C100.578 101.674 100.413 101.642 100.278 101.554C100.143 101.465 100.049 101.327 100.016 101.169C99.1598 97.9688 98.3598 94.6728 97.6158 91.3128C97.5846 91.1685 97.5025 91.0401 97.3846 90.9512C97.2666 90.8623 97.1207 90.8188 96.9733 90.8285C96.8259 90.8382 96.687 90.9005 96.5817 91.0041C96.4764 91.1077 96.4119 91.2456 96.3998 91.3928C95.4558 102.809 97.1038 115.089 99.5118 125.921C99.534 126.071 99.5001 126.224 99.4166 126.35C99.3331 126.477 99.2059 126.568 99.0594 126.606C98.9128 126.645 98.7572 126.628 98.6222 126.559C98.4872 126.49 98.3824 126.374 98.3278 126.233C96.9116 121.586 95.7314 116.871 94.7918 112.105C94.7638 111.965 94.6884 111.84 94.5783 111.749C94.4682 111.659 94.3302 111.61 94.1878 111.61C94.0454 111.61 93.9075 111.659 93.7973 111.749C93.6872 111.84 93.6118 111.965 93.5838 112.105C92.5065 119.84 92.8809 127.707 94.6878 135.305C94.7194 135.456 94.693 135.613 94.6141 135.746C94.5351 135.878 94.4093 135.977 94.2615 136.021C94.1136 136.065 93.9546 136.052 93.8157 135.985C93.6769 135.917 93.5685 135.8 93.5118 135.657C92.1838 132.081 90.9118 128.337 89.7598 124.457C89.7157 124.321 89.6258 124.205 89.5056 124.128C89.3854 124.051 89.2423 124.019 89.1007 124.036C88.959 124.053 88.8277 124.118 88.7291 124.221C88.6304 124.325 88.5706 124.459 88.5598 124.601C88.0238 134.545 90.2158 144.305 93.3598 152.897C93.4061 153.042 93.3973 153.198 93.335 153.337C93.2728 153.475 93.1615 153.586 93.0225 153.648C92.8836 153.709 92.7268 153.717 92.5823 153.67C92.4379 153.623 92.3159 153.524 92.2398 153.393C89.6184 148.361 87.2657 143.194 85.1918 137.913C85.1367 137.782 85.0378 137.673 84.9119 137.607C84.7861 137.54 84.641 137.519 84.5014 137.547C84.3619 137.576 84.2364 137.652 84.1464 137.762C84.0564 137.872 84.0074 138.01 84.0078 138.153C84.5918 164.761 107.344 191.361 107.776 191.865L109.632 193.801C110.035 194.252 110.569 194.566 111.16 194.698C111.75 194.83 112.367 194.774 112.924 194.537C113.481 194.301 113.95 193.896 114.265 193.379C114.58 192.863 114.725 192.26 114.68 191.657Z" fill="#E6E6E6"/>
<path d="M85.2898 213.607C86.7778 195.207 88.4898 143.607 66.3298 104.063C66.2623 103.949 66.2413 103.813 66.2709 103.683C66.3006 103.554 66.3788 103.44 66.4894 103.367C66.6 103.293 66.7346 103.264 66.8656 103.287C66.9966 103.309 67.1141 103.381 67.1938 103.487C68.5035 105.201 69.6905 107.006 70.7458 108.887C70.8052 108.991 70.8982 109.07 71.0092 109.113C71.1203 109.156 71.2427 109.159 71.356 109.123C71.4693 109.086 71.5666 109.012 71.6318 108.912C71.6969 108.813 71.7258 108.694 71.7138 108.575C71.1408 103.541 70.2186 98.5534 68.9538 93.6474C68.9302 93.5833 68.9194 93.5152 68.9221 93.4469C68.9248 93.3787 68.9409 93.3116 68.9695 93.2496C68.9981 93.1876 69.0386 93.1318 69.0888 93.0854C69.1389 93.0391 69.1977 93.003 69.2618 92.9794C69.3259 92.9558 69.394 92.945 69.4623 92.9477C69.5305 92.9504 69.5976 92.9665 69.6596 92.9951C69.7216 93.0237 69.7774 93.0642 69.8238 93.1144C69.8702 93.1645 69.9062 93.2233 69.9298 93.2874C71.9943 97.4531 73.5109 101.868 74.4418 106.423C74.4632 106.556 74.5348 106.674 74.6416 106.755C74.7484 106.836 74.8822 106.872 75.0152 106.857C75.1482 106.841 75.2701 106.775 75.3555 106.672C75.4409 106.569 75.4833 106.437 75.4738 106.303C75.3938 104.343 75.2578 102.239 75.0498 100.039C75.0332 99.9093 75.0664 99.7777 75.1427 99.671C75.219 99.5644 75.3328 99.4905 75.4613 99.4642C75.5898 99.4379 75.7235 99.4611 75.8356 99.5292C75.9477 99.5973 76.0299 99.7052 76.0658 99.8314C78.5796 107.94 79.1928 116.519 77.8578 124.903V124.975C79.5849 116.609 80.4826 108.094 80.5378 99.5514C80.5177 99.4103 80.5544 99.267 80.6399 99.153C80.7254 99.0389 80.8527 98.9636 80.9938 98.9434C81.1349 98.9232 81.2782 98.96 81.3923 99.0455C81.5063 99.131 81.5817 99.2583 81.6018 99.3994C82.6084 103.424 83.2246 107.536 83.4418 111.679C83.4418 111.817 83.4966 111.95 83.5941 112.047C83.6916 112.145 83.8239 112.199 83.9618 112.199C84.0997 112.199 84.232 112.145 84.3295 112.047C84.427 111.95 84.4818 111.817 84.4818 111.679C84.5538 110.879 84.6098 110.079 84.6498 109.279C84.6505 109.15 84.6997 109.025 84.7878 108.929C84.8758 108.834 84.9963 108.775 85.1256 108.764C85.2549 108.753 85.3837 108.791 85.4866 108.87C85.5895 108.949 85.6591 109.064 85.6818 109.191C86.8445 114.444 87.4055 119.812 87.3538 125.191C87.3545 125.321 87.4037 125.446 87.4918 125.541C87.5798 125.637 87.7003 125.696 87.8296 125.707C87.9589 125.718 88.0877 125.68 88.1906 125.601C88.2935 125.522 88.3632 125.407 88.3858 125.279C89.2338 119.983 89.9858 114.079 90.3698 107.951C90.3724 107.822 90.4229 107.699 90.5116 107.605C90.6003 107.511 90.7207 107.453 90.8495 107.443C90.9783 107.433 91.1062 107.472 91.2083 107.551C91.3104 107.63 91.3794 107.744 91.4018 107.871C95.5698 127.951 88.8418 149.399 86.3378 156.327C91.2577 143.369 95.0061 129.995 97.5378 116.367C97.5583 116.241 97.6244 116.128 97.7235 116.047C97.8226 115.967 97.9478 115.926 98.0752 115.932C98.2026 115.938 98.3234 115.99 98.4146 116.079C98.5058 116.169 98.5611 116.288 98.5698 116.415C99.1511 123.188 98.8823 130.006 97.7698 136.711C97.7572 136.838 97.7914 136.965 97.866 137.068C97.9406 137.171 98.0503 137.243 98.1745 137.271C98.2986 137.298 98.4286 137.279 98.5397 137.217C98.6509 137.156 98.7356 137.055 98.7778 136.935C99.5778 134.231 100.266 131.447 100.906 128.599C100.928 128.472 100.997 128.358 101.099 128.279C101.201 128.2 101.329 128.161 101.458 128.171C101.587 128.181 101.707 128.239 101.796 128.333C101.885 128.427 101.935 128.55 101.938 128.679C102.602 138.383 101.058 148.791 98.8818 157.959C98.8447 158.093 98.8622 158.236 98.9304 158.357C98.9987 158.478 99.1121 158.566 99.2458 158.603C99.3795 158.641 99.5224 158.623 99.6432 158.555C99.764 158.487 99.8527 158.373 99.8898 158.239C101.156 154.312 102.224 150.323 103.09 146.287C103.111 146.167 103.174 146.058 103.268 145.98C103.361 145.901 103.48 145.858 103.602 145.858C103.724 145.858 103.842 145.901 103.936 145.98C104.029 146.058 104.092 146.167 104.114 146.287C104.94 152.871 104.53 159.55 102.906 165.983C102.867 166.114 102.88 166.255 102.944 166.376C103.008 166.497 103.117 166.588 103.248 166.629C103.378 166.67 103.52 166.658 103.641 166.595C103.763 166.533 103.855 166.425 103.898 166.295C105.066 163.279 106.194 160.111 107.218 156.839C107.255 156.722 107.332 156.621 107.436 156.555C107.541 156.49 107.665 156.463 107.787 156.48C107.909 156.498 108.021 156.558 108.103 156.65C108.185 156.742 108.231 156.86 108.234 156.983C108.57 165.423 106.634 173.687 103.81 180.943C103.762 181.067 103.763 181.204 103.813 181.327C103.863 181.45 103.958 181.549 104.078 181.604C104.199 181.659 104.336 181.666 104.461 181.624C104.587 181.581 104.692 181.492 104.754 181.375C107.04 177.136 109.099 172.778 110.922 168.319C110.968 168.207 111.053 168.115 111.161 168.058C111.269 168.002 111.393 167.985 111.512 168.01C111.631 168.036 111.737 168.103 111.812 168.199C111.887 168.295 111.926 168.414 111.922 168.535C111.122 191.119 91.4818 213.431 91.1218 213.855L89.5218 215.455C89.1726 215.817 88.7213 216.063 88.2284 216.16C87.7355 216.258 87.2245 216.202 86.764 216.001C86.3035 215.8 85.9155 215.463 85.652 215.035C85.3886 214.607 85.2622 214.109 85.2898 213.607Z" fill="#E0E0E0"/>
<path d="M60.7049 176.584C59.5075 176.583 58.3222 176.824 57.2208 177.294C56.1194 177.764 55.1248 178.452 54.297 179.318C53.4692 180.183 52.8254 181.207 52.4046 182.328C51.9839 183.449 51.7948 184.644 51.8489 185.84C53.0249 211.712 58.8809 282.92 87.7209 282.92C116.561 282.92 122.417 211.72 123.593 185.84C123.646 184.644 123.456 183.45 123.035 182.329C122.614 181.209 121.97 180.185 121.142 179.32C120.315 178.455 119.32 177.767 118.22 177.297C117.119 176.826 115.934 176.584 114.737 176.584H60.7049Z" fill="#EBEBEB"/>
<path d="M307.55 194.744H155.414V199.216H307.55V194.744Z" fill="#F5F5F5"/>
<path d="M307.55 199.225H339.414V194.753H307.55V199.225Z" fill="#E0E0E0"/>
<path d="M323.478 199.217H322.15L306.734 282.921H308.07L323.478 199.217Z" fill="#E0E0E0"/>
<path d="M323.48 199.217H324.816L340.232 282.921H338.896L323.48 199.217Z" fill="#E0E0E0"/>
<path d="M171.354 199.217H170.018L154.602 282.921H155.938L171.354 199.217Z" fill="#E0E0E0"/>
<path d="M171.352 199.217H172.68L188.096 282.921H186.768L171.352 199.217Z" fill="#E0E0E0"/>
<path d="M233.248 252.432H217.52V282.92H233.248V252.432Z" fill="#E6E6E6"/>
<path d="M184.912 282.92H217.52V252.432H184.912V282.92Z" fill="#F5F5F5"/>
<path d="M194.35 265.352H184.91V271.584H194.35V265.352Z" fill="#F0F0F0"/>
<path d="M194.35 273.305H184.91V279.537H194.35V273.305Z" fill="#F0F0F0"/>
<path d="M233.938 250.104H217.762V252.432H233.938V250.104Z" fill="#E0E0E0"/>
<path d="M184.218 252.432H217.762V250.104H184.218V252.432Z" fill="#F0F0F0"/>
<path d="M299.855 237.729H276.543V282.921H299.855V237.729Z" fill="#E6E6E6"/>
<path d="M228.207 282.912H276.543V237.72H228.207V282.912Z" fill="#F5F5F5"/>
<path d="M272.614 242.896H255.91V257.616H272.614V242.896Z" fill="#F0F0F0"/>
<path d="M272.614 261.695H255.91V276.415H272.614V261.695Z" fill="#F0F0F0"/>
<path d="M300.886 234.279H276.902V237.727H300.886V234.279Z" fill="#E0E0E0"/>
<path d="M227.175 237.721H276.895V234.273H227.175V237.721Z" fill="#F0F0F0"/>
<path d="M199.999 319.048C285.665 319.048 355.111 314.993 355.111 309.992C355.111 304.99 285.665 300.936 199.999 300.936C114.333 300.936 44.8867 304.99 44.8867 309.992C44.8867 314.993 114.333 319.048 199.999 319.048Z" fill="#F5F5F5"/>
<path d="M344.842 110.046L344.586 115.824L345.417 115.861L345.673 110.083L344.842 110.046Z" fill="#546E81"/>
<path d="M345.735 90.0656L345.051 105.482L345.882 105.519L346.566 90.1024L345.735 90.0656Z" fill="#546E81"/>
<path d="M332.601 182.953H172.753C171.859 182.958 170.974 182.781 170.151 182.432C169.328 182.083 168.585 181.569 167.968 180.923C167.35 180.276 166.872 179.51 166.561 178.672C166.251 177.834 166.114 176.941 166.161 176.049L171.553 55.6405C171.657 53.792 172.457 52.0515 173.793 50.7701C175.13 49.4888 176.902 48.762 178.753 48.7365H338.617C339.512 48.7298 340.398 48.9061 341.221 49.2548C342.045 49.6034 342.788 50.1169 343.406 50.7637C344.023 51.4105 344.502 52.1768 344.812 53.0155C345.122 53.8542 345.257 54.7476 345.209 55.6405L339.817 176.049C339.712 177.899 338.909 179.641 337.57 180.922C336.23 182.204 334.455 182.929 332.601 182.953Z" fill="#546E81"/>
<path opacity="0.5" d="M331.425 182.952H172.753C171.859 182.958 170.974 182.781 170.151 182.432C169.328 182.083 168.585 181.569 167.968 180.923C167.35 180.276 166.872 179.51 166.561 178.672C166.251 177.834 166.114 176.941 166.161 176.048L171.553 55.6405C171.657 53.792 172.457 52.0514 173.793 50.77C175.13 49.4887 176.902 48.7619 178.753 48.7365H337.441C338.336 48.7309 339.222 48.9081 340.045 49.257C340.868 49.606 341.612 50.1194 342.23 50.7658C342.848 51.4121 343.327 52.1779 343.639 53.0161C343.95 53.8544 344.087 54.7474 344.041 55.6405L338.641 176.048C338.536 177.899 337.733 179.641 336.394 180.922C335.054 182.204 333.279 182.929 331.425 182.952Z" fill="white"/>
<path opacity="0.4" d="M284.835 150.857L256.227 150.601L259.803 110.465H287.251L284.835 150.857Z" fill="#546E81"/>
<path opacity="0.4" d="M215.721 105.633L187.105 105.505L190.497 65.3691L219.113 65.4971L215.721 105.633Z" fill="#546E81"/>
<path opacity="0.4" d="M289.753 103.536L260.969 104.752L262.737 64.7598L290.369 63.5918L289.753 103.536Z" fill="#546E81"/>
<path opacity="0.4" d="M321.507 136.632L293.387 134.424L297.291 94.3281L324.835 97.2081L321.507 136.632Z" fill="#546E81"/>
<path opacity="0.4" d="M250.883 94.5847L228.867 93.9927L231.083 63.1367L252.843 63.4647L250.883 94.5847Z" fill="#546E81"/>
<path opacity="0.4" d="M212.491 177.001L190.867 176.545L193.075 145.681L213.843 145.289L212.491 177.001Z" fill="#546E81"/>
<path opacity="0.4" d="M329.778 89.5521L307.738 89.6081L310.242 58.7201L331.858 58.6641L329.778 89.5521Z" fill="#546E81"/>
<path opacity="0.4" d="M221.723 138.217L243.523 140.729L247.419 109.289L226.619 107.545L221.723 138.217Z" fill="#546E81"/>
<path d="M283.713 149.681L255.105 149.425L258.681 109.289L287.289 109.553L283.713 149.681Z" fill="white"/>
<path d="M215.499 104.728L186.891 104.472L190.467 64.3359L219.075 64.5999L215.499 104.728Z" fill="white"/>
<path d="M288.632 102.361L259.848 103.577L261.608 63.593L290.4 62.377L288.632 102.361Z" fill="white"/>
<path d="M320.626 136.224L292.266 133.256L296.17 93.1523L324.53 96.1203L320.626 136.224Z" fill="white"/>
<path d="M250.457 93.4169L228.441 92.8249L230.649 61.9609L252.665 62.5529L250.457 93.4169Z" fill="white"/>
<path d="M211.762 175.96L189.746 175.368L191.954 144.512L213.97 145.104L211.762 175.96Z" fill="white"/>
<path d="M329.032 89.1206L306.992 89.1766L309.496 58.2806L331.536 58.2246L329.032 89.1206Z" fill="white"/>
<path d="M220.602 137.041L242.402 139.553L247.29 108.881L225.498 106.369L220.602 137.041Z" fill="white"/>
<path opacity="0.4" d="M232.129 151.736C232.129 151.736 232.001 160.112 230.801 162.6C234.713 163.72 242.257 163.704 242.257 163.704C242.257 163.704 243.905 155.648 243.633 152.504C241.385 151.968 232.129 151.736 232.129 151.736Z" fill="#546E81"/>
<path d="M232.128 151.736C232.128 151.736 231.2 160.096 230.008 162.6C233.522 163.438 237.091 164.029 240.688 164.368C240.688 164.368 244.016 155.672 243.632 152.48C241.384 151.968 232.128 151.736 232.128 151.736Z" fill="white"/>
<path opacity="0.4" d="M291.035 153.105C291.035 153.105 295.571 164.577 295.315 168.625C301.459 167.937 312.155 164.409 312.155 164.409C312.155 164.409 309.867 151.777 307.667 147.609C304.227 148.201 291.035 153.105 291.035 153.105Z" fill="#546E81"/>
<path d="M289.555 152.241C289.555 152.241 293.363 166.977 293.107 171.025C299.251 170.329 311.107 165.577 311.107 165.577C311.107 165.577 309.507 150.521 307.107 146.377C303.699 146.993 289.555 152.241 289.555 152.241Z" fill="white"/>
<path opacity="0.4" d="M304.536 149.896C304.518 150.249 304.365 150.582 304.109 150.826C303.854 151.07 303.514 151.207 303.16 151.208C302.99 151.211 302.821 151.178 302.664 151.112C302.506 151.046 302.364 150.949 302.247 150.826C302.129 150.703 302.038 150.557 301.979 150.397C301.92 150.237 301.895 150.066 301.904 149.896C301.923 149.542 302.075 149.209 302.331 148.964C302.587 148.718 302.926 148.58 303.28 148.576C303.451 148.575 303.621 148.609 303.778 148.675C303.935 148.742 304.077 148.84 304.195 148.964C304.312 149.088 304.403 149.234 304.462 149.395C304.521 149.555 304.546 149.726 304.536 149.896Z" fill="#546E81"/>
<path d="M216.593 64.617C216.553 65.2159 216.29 65.778 215.856 66.1927C215.422 66.6073 214.849 66.8444 214.249 66.857C213.958 66.8608 213.67 66.8047 213.402 66.6922C213.133 66.5797 212.891 66.4132 212.69 66.2031C212.489 65.993 212.333 65.7438 212.233 65.4709C212.132 65.1981 212.088 64.9074 212.105 64.617C212.145 64.0182 212.408 63.456 212.842 63.0414C213.275 62.6267 213.849 62.3897 214.449 62.377C214.739 62.3745 215.027 62.4314 215.295 62.5443C215.563 62.6572 215.804 62.8237 216.005 63.0335C216.206 63.2434 216.362 63.4921 216.463 63.7645C216.564 64.0368 216.608 64.3269 216.593 64.617Z" fill="#546E81"/>
<path d="M231.464 107.088C231.444 107.517 231.26 107.922 230.951 108.219C230.641 108.517 230.23 108.685 229.8 108.688C229.593 108.691 229.388 108.651 229.197 108.57C229.006 108.49 228.834 108.371 228.691 108.22C228.548 108.07 228.438 107.892 228.367 107.697C228.297 107.502 228.267 107.295 228.28 107.088C228.301 106.66 228.485 106.255 228.794 105.957C229.104 105.66 229.515 105.492 229.944 105.488C230.152 105.486 230.357 105.526 230.548 105.607C230.739 105.687 230.911 105.806 231.054 105.956C231.197 106.107 231.307 106.285 231.377 106.48C231.448 106.674 231.478 106.882 231.464 107.088Z" fill="#546E81"/>
<path d="M299.202 75.2895C299.178 75.717 298.993 76.1195 298.684 76.4163C298.375 76.713 297.966 76.8821 297.538 76.8895C297.331 76.8909 297.125 76.8499 296.935 76.769C296.744 76.6882 296.572 76.5691 296.429 76.4193C296.285 76.2695 296.174 76.0919 296.102 75.8976C296.031 75.7034 295.999 75.4964 296.01 75.2895C296.032 74.8613 296.217 74.4577 296.526 74.1606C296.835 73.8634 297.245 73.695 297.674 73.6895C297.881 73.6881 298.086 73.7291 298.277 73.81C298.468 73.8908 298.64 74.0098 298.783 74.1597C298.926 74.3095 299.037 74.487 299.109 74.6813C299.181 74.8756 299.213 75.0826 299.202 75.2895Z" fill="#546E81"/>
<path d="M123.719 83.1914C124.583 87.5994 125.439 95.6714 122.359 98.6154C124.86 102.656 128.58 105.797 132.983 107.583C138.879 103.895 136.055 98.6154 136.055 98.6154C131.143 97.4394 131.255 93.8154 132.127 90.3674L123.719 83.1914Z" fill="#B55B52"/>
<path d="M117.871 84.696C114.247 84.328 103.471 99.552 124.335 106.344C120.943 103.2 119.255 100.152 120.143 96.552C120.673 93.7637 120.819 90.9158 120.575 88.088C120.575 88.088 121.815 85.096 117.871 84.696Z" fill="#263238"/>
<path d="M120.08 103.215C119.336 102.366 118.751 101.39 118.352 100.335C118.105 99.6328 118.042 98.8791 118.17 98.1461C118.299 97.413 118.613 96.7253 119.084 96.1491C119.555 95.573 120.166 95.1277 120.859 94.8561C121.552 94.5845 122.303 94.4959 123.04 94.5986C125.287 94.9072 127.565 94.9234 129.816 94.6466C134.92 94.0146 137.592 96.5826 140.352 102.087C140.352 102.087 139.064 104.487 135.2 105.423C131.336 106.359 120.08 103.215 120.08 103.215Z" fill="#546E81"/>
<path d="M142.575 79.3027C142.439 79.8867 142.631 80.4307 143.015 80.5187C143.399 80.6067 143.815 80.2147 143.959 79.6307C144.103 79.0467 143.903 78.5027 143.519 78.4147C143.135 78.3267 142.719 78.7187 142.575 79.3027Z" fill="#263238"/>
<path d="M143.344 78.4079L144.84 78.3359C144.84 78.3359 143.864 79.2559 143.344 78.4079Z" fill="#263238"/>
<path d="M144.287 76.0233C144.355 76.0266 144.423 76.0099 144.481 75.9755C144.54 75.941 144.588 75.8902 144.618 75.8291C144.649 75.7681 144.661 75.6995 144.653 75.6317C144.646 75.5639 144.618 75.4999 144.575 75.4473C144.225 75.012 143.776 74.6671 143.265 74.4416C142.754 74.2161 142.196 74.1165 141.639 74.1513C141.592 74.1563 141.547 74.1704 141.507 74.1928C141.466 74.2153 141.43 74.2456 141.401 74.2821C141.372 74.3186 141.35 74.3604 141.338 74.4053C141.325 74.4501 141.321 74.497 141.327 74.5433C141.339 74.636 141.386 74.7205 141.46 74.7787C141.533 74.8369 141.626 74.8644 141.719 74.8553C142.161 74.8323 142.602 74.9154 143.006 75.0977C143.41 75.28 143.764 75.5562 144.039 75.9033C144.103 75.9739 144.192 76.0169 144.287 76.0233Z" fill="#263238"/>
<path d="M141.847 81.0879C142.045 82.5437 142.444 83.9652 143.031 85.3119C142.683 85.4516 142.309 85.5139 141.935 85.4946C141.561 85.4753 141.195 85.3747 140.863 85.1999L141.847 81.0879Z" fill="#A02724"/>
<path d="M123.494 72.1996C122.214 79.4636 121.518 82.5036 124.246 87.0476C128.35 93.8796 137.542 93.8636 140.974 87.1356C144.054 81.0796 145.638 70.2236 139.318 65.6956C137.93 64.6895 136.308 64.0549 134.606 63.852C132.904 63.649 131.179 63.8846 129.593 64.5363C128.008 65.1879 126.615 66.234 125.548 67.5753C124.48 68.9165 123.773 70.5083 123.494 72.1996Z" fill="#B55B52"/>
<path d="M136.399 77.9592C138.599 77.0632 143.831 75.0792 145.111 71.9512C146.391 68.8232 141.111 60.4712 136.599 62.1192C124.847 59.6152 116.655 65.2392 116.703 74.1192C116.751 83.3992 120.439 88.6792 126.487 90.0552C132.535 91.4312 137.791 85.0952 136.399 77.9592Z" fill="#263238"/>
<path d="M119.512 80.5104C117.112 80.1824 115.832 82.6144 116.704 84.6304C117.576 86.6464 120.488 89.8384 121.608 89.8384C122.728 89.8384 124.944 89.0384 125.504 87.7824C126.064 86.5264 121.128 80.7424 119.512 80.5104Z" fill="#546E81"/>
<path d="M134.4 77.2866C134.236 77.9725 134.21 78.684 134.322 79.3801C134.435 80.0763 134.684 80.7432 135.056 81.3426C136.056 82.9426 137.824 82.3586 138.608 80.7426C139.312 79.2946 139.632 76.7426 138.12 75.6706C137.785 75.4432 137.398 75.3041 136.995 75.2663C136.592 75.2286 136.186 75.2933 135.815 75.4546C135.444 75.6159 135.119 75.8684 134.872 76.1887C134.625 76.509 134.462 76.8867 134.4 77.2866Z" fill="#B55B52"/>
<path d="M117.543 106.023C117.543 106.319 117.543 106.823 117.543 107.215V108.511C117.543 109.381 117.583 110.253 117.663 111.127C117.785 112.854 118.009 114.571 118.335 116.271C118.925 119.523 120.148 122.627 121.935 125.407C122.591 126.255 122.335 126.119 122.895 126.503C123.492 126.876 124.131 127.177 124.799 127.399C126.444 127.957 128.129 128.393 129.839 128.703C133.399 129.375 137.167 129.839 140.863 130.215L140.967 133.983C137.048 134.496 133.09 134.649 129.143 134.439C127.062 134.343 124.994 134.054 122.967 133.575C121.796 133.294 120.66 132.881 119.583 132.343C118.91 131.991 118.283 131.556 117.719 131.047C117.559 130.903 117.399 130.735 117.239 130.567L116.943 130.223L116.399 129.575C115.023 127.848 113.877 125.95 112.991 123.927C112.127 121.979 111.458 119.95 110.991 117.871C110.515 115.842 110.191 113.78 110.023 111.703C109.951 110.671 109.903 109.639 109.887 108.599C109.887 108.079 109.887 107.559 109.887 107.039C109.887 106.519 109.927 106.031 109.983 105.367L117.543 106.023Z" fill="#B55B52"/>
<path d="M140.631 129.935L148.559 128.688L144.655 135.152C144.655 135.152 139.855 134.952 138.543 132.176L140.631 129.935Z" fill="#B55B52"/>
<path d="M152.476 130.864L152.5 135.671L144.652 135.152L148.556 128.688L152.476 130.864Z" fill="#B55B52"/>
<path d="M169.19 151.335H144.39C144.226 151.355 144.059 151.332 143.907 151.267C143.755 151.202 143.622 151.099 143.522 150.967C143.423 150.835 143.36 150.679 143.339 150.514C143.319 150.35 143.342 150.184 143.406 150.031L154.854 116.679C155.007 116.305 155.265 115.982 155.597 115.752C155.93 115.522 156.322 115.394 156.726 115.383H181.526C181.69 115.361 181.857 115.383 182.01 115.447C182.162 115.51 182.295 115.613 182.395 115.745C182.495 115.877 182.558 116.032 182.579 116.197C182.599 116.361 182.575 116.527 182.51 116.679L171.062 150.031C170.909 150.406 170.65 150.728 170.318 150.959C169.986 151.19 169.595 151.321 169.19 151.335Z" fill="#546E81"/>
<path d="M168.749 150.28H144.797C144.705 150.292 144.611 150.28 144.526 150.244C144.44 150.208 144.366 150.15 144.31 150.076C144.255 150.002 144.22 149.914 144.21 149.822C144.2 149.73 144.215 149.637 144.253 149.552L155.565 116.568C155.651 116.359 155.796 116.18 155.982 116.051C156.168 115.922 156.387 115.849 156.613 115.84H180.613C180.704 115.829 180.798 115.841 180.883 115.877C180.968 115.913 181.042 115.971 181.098 116.045C181.154 116.119 181.19 116.206 181.201 116.298C181.213 116.389 181.2 116.483 181.165 116.568L169.845 149.552C169.754 149.768 169.602 149.953 169.407 150.082C169.212 150.212 168.983 150.281 168.749 150.28Z" fill="white"/>
<path d="M110.134 100.199L118.134 103.439L122.398 108.167L122.95 114.687C122.95 114.687 113.63 121.759 108.678 121.087C106.966 109.103 108.038 102.511 110.134 100.199Z" fill="#263238"/>
<path d="M149.486 105.488C149.606 110.872 148.846 122.08 145.062 145.352H114.894C115.398 133.072 115.998 125.352 110.094 100.184C114.15 99.3497 118.263 98.8202 122.398 98.5998C126.957 98.2714 131.534 98.2714 136.094 98.5998C139.046 98.8718 142.198 99.3438 144.598 99.7598C145.951 99.9976 147.18 100.7 148.072 101.745C148.964 102.79 149.464 104.114 149.486 105.488Z" fill="#263238"/>
<path opacity="0.2" d="M143.591 107.584L148.959 116.328C148.679 119.44 148.271 123.168 147.687 127.624L143.287 125.024C141.487 111.792 143.591 107.584 143.591 107.584Z" fill="black"/>
<path d="M149.983 107.727C151.097 111.231 152.164 114.751 153.183 118.287L154.719 123.591L156.199 128.911L156.927 131.575L157.287 132.911C157.37 133.252 157.471 133.588 157.591 133.919C157.742 134.356 157.943 134.775 158.191 135.167C158.247 135.247 158.239 135.263 158.191 135.287C158.143 135.311 158.135 135.359 158.231 135.375C158.703 135.378 159.166 135.247 159.567 134.999C160.228 134.641 160.854 134.223 161.439 133.751C162.079 133.239 162.711 132.679 163.335 132.087C163.959 131.495 164.575 130.831 165.135 130.239L168.335 132.255C167.897 133.161 167.406 134.039 166.863 134.887C166.33 135.756 165.733 136.585 165.079 137.367C164.38 138.219 163.591 138.994 162.727 139.679C161.642 140.556 160.355 141.15 158.983 141.407C158.084 141.558 157.163 141.506 156.287 141.255C155.422 140.999 154.619 140.569 153.927 139.991C152.872 139.078 152.019 137.956 151.423 136.695C151.166 136.178 150.947 135.643 150.767 135.095L150.319 133.775L149.423 131.143L147.671 125.863L145.983 120.559C144.839 117.023 143.759 113.471 142.719 109.911L149.983 107.727Z" fill="#B55B52"/>
<path d="M141.789 105.799C143.061 102.759 147.045 100.799 147.045 100.799C151.333 103.591 152.781 104.911 155.629 119.111C151.477 122.743 144.597 122.743 144.597 122.743L140.885 113.143C140.885 113.143 140.517 108.863 141.789 105.799Z" fill="#263238"/>
<path d="M164.148 131.647L166.996 124.703L170.484 131.399C170.484 131.399 167.844 135.399 164.772 135.079L164.148 131.647Z" fill="#B55B52"/>
<path d="M172.256 126.103C172.185 126.105 172.115 126.089 172.052 126.057C171.989 126.025 171.936 125.977 171.896 125.919L163.584 114.543C163.514 114.445 163.487 114.324 163.506 114.206C163.526 114.088 163.591 113.982 163.688 113.911C163.784 113.842 163.904 113.815 164.021 113.834C164.138 113.854 164.243 113.919 164.312 114.015L172.616 125.391C172.668 125.457 172.7 125.536 172.708 125.62C172.716 125.703 172.701 125.787 172.663 125.862C172.625 125.937 172.566 125.999 172.494 126.042C172.422 126.085 172.339 126.106 172.256 126.103Z" fill="#263238"/>
<path d="M173.216 123.352L175.048 127.384L170.488 131.4L167 124.704L173.216 123.352Z" fill="#B55B52"/>
<path d="M145.062 145.352C145.062 145.352 152.598 202.384 155.174 224.896C158.974 258.144 167.462 302.496 167.462 302.496L162.398 303.4C162.398 303.4 144.702 260 142.03 227.136C133.638 202.928 121.598 145.352 121.598 145.352H145.062Z" fill="#B55B52"/>
<path d="M167.053 297.047L160.501 300.247C160.368 300.307 160.262 300.413 160.203 300.546C160.144 300.679 160.136 300.829 160.181 300.967L162.293 307.223C162.358 307.381 162.455 307.523 162.578 307.641C162.701 307.759 162.848 307.85 163.008 307.908C163.169 307.966 163.339 307.99 163.51 307.978C163.68 307.966 163.846 307.919 163.997 307.839C166.685 306.471 166.693 306.287 170.109 304.639C172.213 303.607 175.629 302.047 178.533 300.639C181.437 299.231 180.189 296.423 178.853 296.767C172.869 298.319 170.989 297.479 168.453 296.919C167.985 296.799 167.491 296.845 167.053 297.047Z" fill="#263238"/>
<path d="M137.182 145.352C137.182 145.352 132.286 199.368 128.166 221.648C123.838 245.048 120.606 300.808 120.558 302.512H115.414C115.414 302.512 108.374 239.832 114.942 218.856C116.03 193.256 114.894 145.352 114.894 145.352H137.182Z" fill="#B55B52"/>
<path d="M121.165 301.463H115.309C115.164 301.46 115.022 301.51 114.911 301.605C114.801 301.699 114.729 301.831 114.709 301.975L113.845 308.671C113.829 308.841 113.849 309.012 113.904 309.174C113.958 309.336 114.046 309.484 114.161 309.61C114.277 309.736 114.417 309.836 114.573 309.904C114.729 309.973 114.898 310.008 115.069 310.007C118.013 309.959 116.837 309.783 120.557 309.783C122.845 309.783 126.157 310.023 129.357 310.023C132.557 310.023 132.645 306.895 131.325 306.615C125.405 305.343 124.453 303.591 122.437 301.927C122.081 301.627 121.63 301.463 121.165 301.463Z" fill="#263238"/>
<path opacity="0.2" d="M115.008 217.304L128.664 218.808C129.216 215.544 129.784 211.776 130.336 207.712L115.288 206.168C115.2 210.128 115.136 213.896 115.008 217.304Z" fill="black"/>
<path opacity="0.2" d="M153.39 210.08L136.398 208.336C137.518 212.504 138.638 216.448 139.718 220.016L154.79 221.664C154.398 218.28 153.918 214.344 153.39 210.08Z" fill="black"/>
<path d="M145.063 145.352L155.943 219.864L113.639 214.504C117.767 182.608 105.231 157.032 114.895 145.352H145.063Z" fill="#546E81"/>
<path opacity="0.2" d="M118.863 160.639C123.488 164.658 128.852 167.737 134.655 169.703C125.151 169.599 120.743 166.223 118.863 160.639Z" fill="black"/>
<path d="M234.705 155.477L234.145 157H233.884L233.323 155.477H233.591L234.012 156.729H234.018L234.439 155.477H234.705ZM235.378 156.81C235.619 156.81 235.803 156.641 235.803 156.421V156.297L235.396 156.322C235.191 156.335 235.074 156.426 235.074 156.569C235.074 156.714 235.195 156.81 235.378 156.81ZM235.321 157.026C235.018 157.026 234.814 156.843 234.814 156.569C234.814 156.309 235.015 156.145 235.367 156.124L235.803 156.099V155.972C235.803 155.786 235.68 155.674 235.469 155.674C235.273 155.674 235.15 155.767 235.118 155.916H234.872C234.889 155.652 235.115 155.45 235.475 155.45C235.833 155.45 236.058 155.644 236.058 155.947V157H235.816V156.738H235.811C235.72 156.912 235.526 157.026 235.321 157.026ZM236.355 155.897C236.355 155.636 236.588 155.45 236.924 155.45C237.239 155.45 237.47 155.638 237.482 155.896H237.239C237.221 155.749 237.103 155.658 236.915 155.658C236.729 155.658 236.606 155.75 236.606 155.884C236.606 155.989 236.687 156.06 236.859 156.104L237.095 156.161C237.403 156.238 237.514 156.35 237.514 156.574C237.514 156.839 237.264 157.026 236.908 157.026C236.574 157.026 236.341 156.845 236.314 156.575H236.569C236.597 156.733 236.717 156.818 236.924 156.818C237.13 156.818 237.258 156.73 237.258 156.593C237.258 156.484 237.195 156.426 237.023 156.38L236.755 156.312C236.487 156.243 236.355 156.105 236.355 155.897ZM239.045 155.976H238.796C238.759 155.811 238.63 155.674 238.406 155.674C238.143 155.674 237.964 155.893 237.964 156.238C237.964 156.593 238.146 156.802 238.409 156.802C238.617 156.802 238.753 156.692 238.797 156.509H239.048C239.008 156.812 238.753 157.026 238.408 157.026C237.986 157.026 237.705 156.729 237.705 156.238C237.705 155.758 237.984 155.45 238.405 155.45C238.786 155.45 239.013 155.702 239.045 155.976ZM239.914 157.026C239.492 157.026 239.208 156.723 239.208 156.238C239.208 155.752 239.492 155.45 239.914 155.45C240.334 155.45 240.618 155.752 240.618 156.238C240.618 156.723 240.334 157.026 239.914 157.026ZM239.914 156.802C240.183 156.802 240.359 156.597 240.359 156.238C240.359 155.879 240.183 155.674 239.914 155.674C239.644 155.674 239.467 155.879 239.467 156.238C239.467 156.597 239.644 156.802 239.914 156.802Z" fill="black"/>
</svg>
