<svg width="484" height="68" viewBox="0 0 484 68" fill="none" xmlns="http://www.w3.org/2000/svg">
<path opacity="0.05" d="M234.084 34C234.084 52.2098 219.07 67 200.513 67C181.956 67 166.941 52.2098 166.941 34C166.941 15.7903 181.956 1 200.513 1C219.07 1 234.084 15.7903 234.084 34Z" stroke="white" stroke-width="2"/>
<path opacity="0.05" d="M317.057 34C317.057 52.2098 302.042 67 283.485 67C264.929 67 249.914 52.2098 249.914 34C249.914 15.7903 264.929 1 283.485 1C302.042 1 317.057 15.7903 317.057 34Z" stroke="white" stroke-width="2"/>
<path opacity="0.05" d="M400.03 34C400.03 52.2098 385.015 67 366.458 67C347.901 67 332.887 52.2098 332.887 34C332.887 15.7903 347.901 1 366.458 1C385.015 1 400.03 15.7903 400.03 34Z" stroke="white" stroke-width="2"/>
<path opacity="0.05" d="M151.116 34C151.116 52.2098 136.101 67 117.544 67C98.9873 67 83.9727 52.2098 83.9727 34C83.9727 15.7903 98.9873 1 117.544 1C136.101 1 151.116 15.7903 151.116 34Z" stroke="white" stroke-width="2"/>
<path opacity="0.05" d="M68.1429 34C68.1429 52.2098 53.1282 67 34.5714 67C16.0147 67 1 52.2098 1 34C1 15.7903 16.0147 1 34.5714 1C53.1282 1 68.1429 15.7903 68.1429 34Z" stroke="white" stroke-width="2"/>
<path d="M206.278 22.668H194.754C191.572 22.668 188.992 25.205 188.992 28.3346V39.668C188.992 42.7976 191.572 45.3346 194.754 45.3346H206.278C209.46 45.3346 212.04 42.7976 212.04 39.668V28.3346C212.04 25.205 209.46 22.668 206.278 22.668Z" stroke="white" stroke-width="2" stroke-linecap="round" stroke-linejoin="round"/>
<path d="M205.126 33.2863C205.268 34.2296 205.105 35.1929 204.658 36.0392C204.212 36.8856 203.505 37.5719 202.639 38.0006C201.773 38.4293 200.791 38.5785 199.834 38.4271C198.877 38.2756 197.993 37.8311 197.307 37.1569C196.622 36.4826 196.17 35.6129 196.016 34.6715C195.862 33.7301 196.013 32.7649 196.449 31.9132C196.885 31.0614 197.583 30.3666 198.444 29.9274C199.304 29.4882 200.284 29.3271 201.243 29.467C202.221 29.6097 203.127 30.058 203.826 30.7458C204.525 31.4335 204.981 32.3242 205.126 33.2863Z" stroke="white" stroke-width="2" stroke-linecap="round" stroke-linejoin="round"/>
<path d="M206.855 27.7676H206.868" stroke="white" stroke-width="2" stroke-linecap="round" stroke-linejoin="round"/>
<g clip-path="url(#clip0_679_13167)">
<path d="M366.457 20.9668C358.817 20.9668 352.629 26.9508 352.629 34.3311C352.629 40.2369 356.591 45.2451 362.084 47.0108C362.776 47.1366 363.029 46.7229 363.029 46.3682C363.029 46.0509 363.018 45.2099 363.012 44.0959C359.165 44.9017 358.354 42.3029 358.354 42.3029C357.725 40.7605 356.816 40.3479 356.816 40.3479C355.563 39.5195 356.912 39.5365 356.912 39.5365C358.301 39.6294 359.03 40.9135 359.03 40.9135C360.263 42.9569 362.267 42.3664 363.058 42.0253C363.182 41.1605 363.538 40.5723 363.934 40.238C360.863 39.9037 357.635 38.7545 357.635 33.6341C357.635 32.1755 358.171 30.9832 359.058 30.0482C358.902 29.7105 358.436 28.3516 359.179 26.5111C359.179 26.5111 360.337 26.1529 362.982 27.8813C364.088 27.5843 365.264 27.437 366.439 27.4302C367.614 27.437 368.79 27.5843 369.896 27.8813C372.524 26.1529 373.682 26.5111 373.682 26.5111C374.425 28.3516 373.958 29.7105 373.82 30.0482C374.702 30.9832 375.237 32.1755 375.237 33.6341C375.237 38.7681 372.005 39.898 368.928 40.2267C369.412 40.6279 369.862 41.4473 369.862 42.6996C369.862 44.488 369.844 45.9251 369.844 46.3591C369.844 46.7093 370.086 47.1275 370.795 46.9938C376.328 45.2394 380.286 40.2278 380.286 34.3311C380.286 26.9508 374.094 20.9668 366.457 20.9668Z" fill="white"/>
</g>
<path d="M47.2469 23.8005C46.1434 24.566 44.9215 25.1515 43.6284 25.5345C42.9344 24.7496 42.012 24.1934 40.9861 23.9409C39.9601 23.6884 38.88 23.7519 37.892 24.1228C36.9039 24.4937 36.0555 25.1541 35.4615 26.0147C34.8675 26.8752 34.5565 27.8944 34.5707 28.9345V30.0678C32.5456 30.1194 30.5389 29.6777 28.7293 28.782C26.9198 27.8862 25.3636 26.5642 24.1993 24.9338C24.1993 24.9338 19.5898 35.1338 29.9612 39.6671C27.5879 41.2515 24.7607 42.0459 21.8945 41.9338C32.266 47.6005 44.9421 41.9338 44.9421 28.9005C44.9411 28.5848 44.9102 28.2699 44.85 27.9598C46.0261 26.8191 46.8561 25.3789 47.2469 23.8005Z" fill="white"/>
<path d="M114.567 38.0584L114.11 44.3871C114.764 44.3871 115.048 44.1106 115.388 43.7785L118.457 40.8941L124.816 45.474C125.982 46.1132 126.804 45.7766 127.118 44.4188L131.292 25.1835L131.293 25.1823C131.663 23.4868 130.67 22.8238 129.534 23.2397L104.999 32.4778C103.324 33.117 103.35 34.035 104.714 34.4509L110.987 36.3697L125.557 27.4037C126.242 26.9572 126.866 27.2042 126.353 27.6508L114.567 38.0584Z" fill="white"/>
<path opacity="0.05" d="M482.998 34C482.998 52.2098 467.984 67 449.427 67C430.87 67 415.855 52.2098 415.855 34C415.855 15.7903 430.87 1 449.427 1C467.984 1 482.998 15.7903 482.998 34Z" stroke="white" stroke-width="2"/>
<g clip-path="url(#clip1_679_13167)">
<path d="M460.176 30.9492C459.303 30.9492 458.534 31.3107 457.968 31.874C455.888 30.4369 453.083 29.5121 449.975 29.4135L451.59 22.1534L456.73 23.3049C456.73 24.5606 457.756 25.5863 459.014 25.5863C460.297 25.5863 461.328 24.5334 461.328 23.2765C461.328 22.0197 460.304 20.9668 459.016 20.9668C458.118 20.9668 457.343 21.5074 456.957 22.2463L451.28 20.9906C450.994 20.9147 450.714 21.1187 450.638 21.4043L448.865 29.4079C445.782 29.5359 443.007 30.4596 440.92 31.8978C440.354 31.3107 439.555 30.9492 438.682 30.9492C435.441 30.9492 434.38 35.2887 437.347 36.7723C437.243 37.2313 437.195 37.7209 437.195 38.2093C437.195 43.0838 442.698 47.0335 449.454 47.0335C456.24 47.0335 461.742 43.0838 461.742 38.2093C461.742 37.7209 461.69 37.2086 461.562 36.7485C464.47 35.2593 463.399 30.9515 460.176 30.9492ZM442.056 37.0805C442.056 35.801 443.082 34.7708 444.37 34.7708C445.628 34.7708 446.655 35.7942 446.655 37.0805C446.655 38.3374 445.63 39.3619 444.37 39.3619C443.087 39.3676 442.056 38.3374 442.056 37.0805ZM454.547 42.5183C452.425 44.6353 446.439 44.6353 444.316 42.5183C444.082 42.3143 444.082 41.9539 444.316 41.7215C444.52 41.5175 444.882 41.5175 445.086 41.7215C446.706 43.3796 452.081 43.4079 453.771 41.7215C453.975 41.5175 454.337 41.5175 454.541 41.7215C454.779 41.955 454.779 42.3154 454.547 42.5183ZM454.499 39.3665C453.241 39.3665 452.215 38.3431 452.215 37.0873C452.215 35.8078 453.241 34.7776 454.499 34.7776C455.782 34.7776 456.813 35.801 456.813 37.0873C456.808 38.3374 455.782 39.3665 454.499 39.3665Z" fill="white"/>
</g>
<g clip-path="url(#clip2_679_13167)">
<path d="M295.107 25.7651L297.313 23.6888V23.2344H289.668L284.22 36.5714L278.021 23.2344H270.005V23.6888L272.583 26.7409C272.835 26.9664 272.966 27.2962 272.932 27.6283V39.6224C273.012 40.0542 272.869 40.4984 272.56 40.8124L269.656 44.2736V44.7224H277.89V44.2679L274.986 40.8124C274.671 40.4973 274.523 40.061 274.586 39.6224V29.2478L281.814 44.728H282.654L288.869 29.2478V41.5796C288.869 41.9049 288.869 41.9718 288.652 42.1848L286.416 44.3121V44.7677H297.263V44.3132L295.108 42.2381C294.919 42.0976 294.821 41.8618 294.861 41.6329V26.3703C294.821 26.1402 294.918 25.9045 295.107 25.7651Z" fill="white"/>
</g>
<defs>
<clipPath id="clip0_679_13167">
<rect width="27.6571" height="27.2" fill="white" transform="translate(352.629 20.4004)"/>
</clipPath>
<clipPath id="clip1_679_13167">
<rect width="27.6571" height="27.2" fill="white" transform="translate(435.602 20.4004)"/>
</clipPath>
<clipPath id="clip2_679_13167">
<rect width="27.6571" height="27.2" fill="white" transform="translate(269.656 20.4004)"/>
</clipPath>
</defs>
</svg>
