<svg width="266" height="55" viewBox="0 0 266 55" fill="none" xmlns="http://www.w3.org/2000/svg">
<path d="M206.501 38.884C207.648 38.9142 208.79 38.7285 209.861 38.3376C210.932 37.9466 211.91 37.3583 212.738 36.6068L215.83 39.788C213.788 41.7746 210.956 43.2522 206.553 43.2522C199.007 43.2522 194.132 38.519 194.132 32.107C194.104 30.638 194.387 29.1786 194.966 27.8153C195.546 26.452 196.408 25.2125 197.503 24.1704C198.597 23.1282 199.902 22.3046 201.34 21.7484C202.777 21.1921 204.318 20.9145 205.871 20.932C213.365 20.932 217.615 26.3283 217.242 33.8081H199.524C200.154 36.9123 202.456 38.8989 206.493 38.8989M211.893 30.242C211.41 27.3365 209.583 25.2009 205.915 25.2009C202.511 25.2009 200.135 27.0236 199.524 30.242H211.893ZM90.1714 38.6531L103.808 25.5485H90.4995V21.4113H110.134V25.633L96.4976 38.7326H110.316V42.8474H90.1766L90.1714 38.6531ZM125.622 38.8865C126.769 38.9167 127.911 38.731 128.982 38.34C130.053 37.9491 131.031 37.3608 131.859 36.6093L134.956 39.788C132.914 41.7746 130.082 43.2522 125.68 43.2522C118.133 43.2522 113.258 38.519 113.258 32.107C113.23 30.638 113.514 29.1786 114.093 27.8153C114.672 26.452 115.534 25.2125 116.629 24.1704C117.724 23.1282 119.029 22.3046 120.466 21.7484C121.903 21.1921 123.444 20.9145 124.997 20.932C132.492 20.932 136.742 26.3283 136.369 33.8081H118.65C119.28 36.9123 121.582 38.8989 125.619 38.8989M131.019 30.242C130.539 27.3365 128.709 25.2009 125.042 25.2009C121.637 25.2009 119.262 27.0236 118.65 30.242H131.019ZM165.805 32.0797C165.805 25.2456 171.213 20.9419 177.172 20.9419C178.601 20.9238 180.018 21.2021 181.322 21.7572C182.626 22.3124 183.785 23.131 184.719 24.1554V11.5276H189.536V42.8176H184.719V39.8376C183.802 40.9038 182.644 41.7614 181.33 42.3468C180.016 42.9323 178.58 43.2307 177.127 43.2199C171.347 43.2199 165.808 38.8989 165.808 32.0872M184.989 32.0474C184.818 26.0377 177.114 23.1819 172.652 27.488C168.189 31.7941 171.444 39.0305 177.804 39.0281C181.941 39.0281 184.986 35.8991 184.986 32.0747M220.379 38.2831L224.742 36.1424C225.918 38.1291 228.154 39.3285 230.562 39.2714C233.292 39.2714 234.699 37.9453 234.699 36.4454C234.699 34.7071 232.063 34.3445 229.199 33.7882C225.346 33.0432 221.335 31.814 221.335 27.4061C221.335 24.0213 224.739 20.8948 230.102 20.9395C234.302 20.9395 237.468 22.5288 239.253 25.0916L235.211 27.1925C234.651 26.4095 233.89 25.7742 232.999 25.3466C232.108 24.9191 231.116 24.7134 230.118 24.7489C227.527 24.7489 226.181 25.9483 226.181 27.3191C226.181 28.8588 228.27 29.2884 231.546 29.9763C235.273 30.7213 239.5 31.9034 239.5 36.3585C239.5 39.3385 236.77 43.2944 230.32 43.2522C225.595 43.2522 222.277 41.4518 220.364 38.2855M252.577 33.3189L248.758 37.2599V42.8226H243.941V11.5326H248.758V32.0052L258.985 21.384H264.852L255.985 30.5723L265.078 42.8201H259.626L252.577 33.3189ZM151.221 20.9767C145.493 20.9767 140.721 24.4906 140.721 30.314V42.8226H145.63V30.848C145.63 27.334 147.764 25.2356 151.41 25.2356C155.056 25.2356 156.87 27.3365 156.87 30.848V42.7779H161.753V30.2693C161.753 24.4459 156.936 20.932 151.253 20.932M35.2669 14.458V54.7376H0L35.2669 14.458ZM35.2669 0C35.2676 4.42507 33.4105 8.66924 30.1039 11.7992C26.7974 14.9291 22.3123 16.6885 17.6347 16.6905C12.9572 16.6885 8.47206 14.9291 5.16555 11.7992C1.85903 8.66924 0.00192703 4.42507 0.00262356 0H35.2669ZM41.076 54.7327C41.0781 50.3093 42.9364 46.0677 46.2426 42.9399C49.5488 39.8121 54.0324 38.0541 58.7081 38.0521C63.3838 38.0541 67.8674 39.8121 71.1736 42.9399C74.4798 46.0677 76.3382 50.3093 76.3403 54.7327H41.076ZM41.076 40.2747V0.00496394H76.3429L41.076 40.2747Z" fill="#B6B6B6"/>
</svg>
