<svg width="85" height="81" viewBox="0 0 85 81" fill="none" xmlns="http://www.w3.org/2000/svg">
<path d="M0.441406 9.54514V71.7674C0.441406 76.6562 4.6152 80.6562 9.82072 80.6562H75.4759C80.6345 80.6562 84.8552 76.6562 84.8552 71.7674V9.54514C84.8552 4.65625 80.6345 0.65625 75.4759 0.65625H9.82072C4.6152 0.65625 0.441406 4.65625 0.441406 9.54514ZM56.7173 27.3229C56.7173 34.7007 50.4331 40.6562 42.6483 40.6562C34.8635 40.6562 28.5793 34.7007 28.5793 27.3229C28.5793 19.9451 34.8635 13.9896 42.6483 13.9896C50.4331 13.9896 56.7173 19.9451 56.7173 27.3229ZM14.5104 62.8785C14.5104 53.9896 33.269 49.1007 42.6483 49.1007C52.0276 49.1007 70.7862 53.9896 70.7862 62.8785V67.3229H14.5104V62.8785Z" fill="#546E81"/>
</svg>
